<?xml version="1.0" encoding="utf-8"?>
<!-- Generator: Adobe Illustrator 24.1.2, SVG Export Plug-In . SVG Version: 6.00 Build 0)  -->
<svg version="1.1" id="레이어_1" xmlns="http://www.w3.org/2000/svg" xmlns:xlink="http://www.w3.org/1999/xlink" x="0px"
	 y="0px" viewBox="0 0 438.9 338.6" style="enable-background:new 0 0 438.9 338.6;" xml:space="preserve">
<style type="text/css">
	.st0{fill:#F5D121;}
	.st1{fill:#3E3737;}
	.st2{fill:#3F3837;}
	.st3{fill:#3E3736;}
	.st4{fill:#423A39;}
	.st5{fill:#423938;}
	.st6{fill:#433939;}
	.st7{fill:#423939;}
	.st8{fill:#FFFFFF;}
	.st9{fill:#F5B117;}
	.st10{fill:#F2AE18;}
	.st11{fill:#F3B019;}
	.st12{fill:#EEEEEE;}
	.st13{fill:#F4D625;}
	.st14{fill:#F4D525;}
	.st15{fill:#1191C2;}
	.st16{fill:#FCFCFB;}
	.st17{fill:#ECEDED;}
	.st18{fill:#F5B119;}
	.st19{fill:#EACB25;}
	.st20{fill:#E9CB25;}
	.st21{fill:#EED024;}
	.st22{fill:#FEFEFE;}
	.st23{fill:#EC6D6E;}
	.st24{fill:#EB6D6D;}
	.st25{fill:#433A39;}
	.st26{fill:#EC6E6F;}
	.st27{fill:#F5DC5D;}
	.st28{fill:#453D38;}
	.st29{fill:#F9D3D0;}
	.st30{fill:#3D3736;}
	.st31{fill:#1AA861;}
	.st32{fill:#F5DB5D;}
	.st33{fill:#413939;}
	.st34{fill:#1BA861;}
	.st35{fill:#F1D75D;}
	.st36{fill:#1391C2;}
	.st37{fill:#F5DC5E;}
	.st38{fill:#FDEBD8;}
	.st39{fill:#806A54;}
	.st40{fill:#664B3C;}
	.st41{fill:#CACCCB;}
	.st42{fill:#CACBCB;}
	.st43{fill:#737EBD;}
	.st44{fill:#FEFFFF;}
	.st45{fill:#F9D2B9;}
	.st46{fill:#F6CACE;}
	.st47{fill:#654A3C;}
	.st48{fill:#F1D75C;}
	.st49{fill:#F2CCB4;}
	.st50{fill:#F3CEB5;}
	.st51{fill:#F2CDB4;}
	.st52{fill:#F3CDB5;}
	.st53{fill:#EDEBEB;}
	.st54{fill:#EDEBEA;}
	.st55{fill:#EFEEEE;}
	.st56{fill:#EA6D6D;}
	.st57{fill:#423B39;}
	.st58{fill:#F8CCD0;}
	.st59{fill:#F8CBD0;}
	.st60{fill:#473D3C;}
	.st61{fill:#483F3D;}
	.st62{fill:#433A38;}
	.st63{fill:#453D3B;}
	.st64{fill:#443C3A;}
	.st65{fill:#E84E59;}
	.st66{fill:#E74E58;}
</style>
<path class="st0" d="M219.1,91.6c-0.7,7.7-1.4,15.3-2,23c0.1,0.1,0.2,0.2,0.2,0.2c-2.8,3.4-2.5,7.1-1.2,10.9
	c-0.5,5.6-1,11.3-1.5,16.9c-1.5,1.2-3.1,1-4.8,0.6c-4.2-3.4-6.9-7.7-10-11.8c-5.7-7.4-11.5-14.8-17.4-22c-2.7-3.3-4.3-6.5-3.8-10.5
	c0.1-0.9,0.1-1.8-0.4-2.6c-0.3-0.4-0.6-0.7-1.1-0.9c-1.8-0.7-3.9,0-5.8-0.8c-2.4-2.3-4.3-4.8-6-7.6c0-0.3,0-0.7,0.1-1
	c9.7-8.1,19.7-15.9,29.8-23.6c2.7-2,4.8-4.6,8-6.1c6.2,2.6,12.8,4.5,18,8.6c-0.5,6.1-0.9,12.3-1.4,18.4
	C219.5,86,219.4,88.8,219.1,91.6z"/>
<path class="st0" d="M52.6,114.4c-0.6-7.6-1.2-15.2-1.9-22.8c-0.2-2.8-0.2-5.6-0.9-8.4C49.4,77.1,49,71,48.6,64.8
	c0.5-1.5,2.2-1.7,3.5-2.3c4.6-2.3,9.7-3.8,13.9-6.8c5,2.3,8.7,6.1,13,9.2c2,1.5,4.9,2.5,5.1,5.4c-0.7,2.2-0.2,4,2.4,4.9
	c1.2,0.5,1.7,1.8,2.6,2.3c3.9,2.1,6.3,5.4,9,8.4c0.9,1,2.5,1.6,1.8,3.2c-0.6,1.5-2.2,1.7-3.8,1.6c-1-0.1-2-0.3-3-0.4
	c-1.2-0.1-2.6,0-3.1,0.9c-1.2,2.4-2.5,4.4-5.8,5c-1,0.2-0.7,1.5-0.4,2.4c0.6,1.8-0.4,2.3-2.3,2.5c-4.5,0.4-5.1,1.1-5.2,5
	c-0.3,7.5,0.3,15,0.9,22.4c0.2,2.8-0.9,4.5-3.7,5.5c-0.6,0.2-1.3,0.4-1.6,0.8c-2.7,4.1-7.5,2.9-11.5,3.5c-1.5,0.2-2.9-0.2-2.5-2
	c0.5-2.4-2.8-2.7-3.1-4.6c-1-2-0.4-4.1-0.8-6.1c0-2.8,2.2-5.6,0.1-8.5C53.4,116.4,52,115.7,52.6,114.4z"/>
<path class="st1" d="M232,196.5c1.2,6.5,0.3,13,0.5,19.4c0.1,2-1.8,1.8-3.3,1.8c-7.1,0-14.2,0-21.3,0c-12.4,0-24.8-0.2-37.2,0.1
	c-8.8,0.2-14.9-4.5-14.1-12.5c0.4-3.7,0.1-7.4,0.1-11.1c0-3.8-2.6-5.2-6.6-3.4c-0.9,0.4-1.7,1-2.5,1.5c-1.4,0.8-2.8,1.6-3-0.8
	c-0.1-1.5-1.2-1.1-2.2-1.1c-11.9,0-23.8,0-35.7-0.1c-2.1,0-2.5,0.7-2.5,2.4c0.1,7.3,0,14.6,0.2,21.9c0.1,2.5-0.8,3.3-3.6,3.3
	c-19.5-0.1-39,0-58.5-0.1c-9.6,0-13.7-4.3-13.6-12.8c0.2-16.5,0.4-33,0-49.4c-0.2-8.9,6-13.2,14.3-12.7c4.2,0.2,8.3-0.1,12.5-0.1
	c1.6-1.2,3.5-1,5.4-1c4.2,0,8.3-0.1,12.5,0.1c8.2-0.1,7.6,0.8,7.6-6.8c0-1.9,0.2-3.8,0-5.6c0-6.4,0-12.7,0-19.1
	c0-3.9,0.9-7.5,3.6-10.7c0.9-1.1,1.9-2.1,3.6-2.2c1.2,0.2,1.4,1,1.4,1.9c-4.1,5.3-4,11.3-4,17.4c0.1,15.5,0,30.9,0.1,46.4
	c0,1.2-0.2,2.5,0.3,3.9c2.6-0.9,4.9-2.2,7.2-3.3c2-1,1.5-3,1.5-4.6c0-15.5,0-30.9,0-46.4c0-1.5-0.1-2.9,0.4-4.3
	c0.3-0.9,0.8-1.7,2.1-1.6c1.1,0.1,1.5,0.8,1.7,1.5c0.5,1.4,0.4,2.9,0.4,4.3c0,15.2,0,30.5,0,45.7c0,1.6-0.2,3.1,0.5,4.6
	c0.9,1.2,2.4,1,3.8,1c12.5,0,24.9,0,37.4,0c1.3,0,2.5,0.1,3.6-0.7c1.1-0.8,1.8-0.3,2.5,0.5c1,1.5,0.7,3.3,0.7,4.9
	c0,5.4,0,10.7,0,16.1c0,1.1-0.4,2.2,0.6,3.4c2.6-1,4.6-2.7,6.8-4c2.4-1.5,4.6-1.4,6.9,0.1c2.1,1.4,4.2,2.9,6.9,4.2
	c0.5-7.4-0.2-14.6,0.4-21.8c0.3-1.3,1.2-2.5,0.6-4c-0.1-0.3-0.1-0.6,0-0.9c1.5-1.8,2.2-0.6,3,0.6c0.2,0.6,0.2,1.2,0.2,1.8
	c-0.1,0.9,0.2,1.8,0.3,2.7c0.1,2,0,4,0.1,6c0,0.8-0.2,2,1.1,2.2c1.3,0.2,1.3-1.1,1.6-1.9c0.1-0.3,0.2-0.6,0.4-0.9
	c0.4-0.6,1-0.8,1.5-0.3c1.6,1.5,1.3,3.3,0.9,5.1c-0.4,1.7-2,1.4-3.4,1.4c-1,0-1.8,0.1-1.9,1.1c-0.2,2.1-0.1,4.2,0,6.3
	c0,0.5,0.2,1.2,0.9,1.3c1,0.1,1.2-0.6,1.4-1.3c0.5-1.4-0.3-3.2,1.5-4.2c2,0,2.1,1.4,2.2,2.6c0.2,1.9-0.1,3.8-0.5,5.7
	c-0.3,1-1.2,1.4-2.2,1.6c-0.9,0.2-1.9,0.2-2.5,0.7c-1.2,0.9-3.4,1.6-3,3.1c0.4,1.6,2.6,1,4,1c18,0,36,0,54,0
	C230.3,196.2,231.2,196.1,232,196.5z"/>
<path class="st0" d="M88.1,97.5c-4.5,2.7-5.8,6.8-5.9,11.3c-0.1,6.8-0.1,13.6-0.2,20.4c-0.8,0.9-0.4,2.3-1.7,2.9c-1.3,0,0,0.7-0.3,1
	c-1.9,3.3-3.1,7-6.4,9.6c-6.1,0-12.2,0-18.3,0c-0.3-3.6-0.5-7.2-0.8-10.8c0.5,0.4,0.9,0.9,1.4,1.1c3.6,1.6,3.6,1.6,2.3,4.9
	c2.9-0.4,5.8-0.8,8.6-0.6c1.1,0.1,1.9-0.2,2.3-1.3c0.2-0.6,0.8-1.4,1.4-1.5c8.6-2.2,5.1-8.1,4.8-12.8c-0.4-6-0.2-12.1-0.1-18.1
	c0-2.3,2.4-3,4.6-3.2c1.1-0.1,2.2,0,3.3,0c-2.1-4-1.9-4.4,3.2-5.4c0.8-0.2,1.2-0.3,1.3-1.2c0.8-4,2.2-4.8,6.6-4c1,0.2,2,0.4,3,0.4
	c0.9,0,1.7-0.4,1.9-1.3c0.2-1.1-0.4-1.8-1.6-1.9c-3.1-0.3-4.2-1.5-3.2-4.3c0.5-1.3-0.7-1.9-1.9-1.8c-2.8,0.2-4.2-1-4.9-3.3
	c-0.2-0.8-0.9-1.2-1.8-1.5c-4.4-1.6-4.7-2.5-2.2-6.1c4.4,1,7,4.2,10.1,6.6c3.7,2.8,7.9,5.2,11.3,8.4c2,1.8,3.3,0.4,4.2-1.3
	c3.9-6.8,8.3-13.3,12.4-20c0.8-1.2,1.3-2.8,3.4-2.7c6.4-0.1,12.7,0.6,19.1-0.4c1.6-0.5,2.4,0.5,3,1.4c5.7,7.5,11.7,14.8,17.4,22.3
	c0.5,0.7,0.9,1.4,0.9,2.2c0,0.2,0,0.3,0,0.5c-2.3,3.7-6.1,5.9-10,8c-12.5,0.5-25,0.1-37.5,0.2c-3,0-4.8-1.8-6.8-3.3
	c-2.1-1.6-3.8-2.1-5.2,0.7c-1,2-2.9,2.6-5.3,2.6c-1.5,0-3-0.1-4.5,0.3C93.5,95.6,91,97.2,88.1,97.5z"/>
<path class="st2" d="M88.1,97.5c2.1-1.9,4.9-2.5,7.7-2.8c9-0.9,18.1-0.6,27.1-0.2c7.1,0.3,14.2,0.1,21.3,0c5-0.1,10.1,0.1,15.1-0.5
	c6.1-0.8,12.3,0.5,18.5,0.7c0.4,0.3,0.7,0.6,1.1,0.9c1.2,13.6,0.9,27.2,0.9,40.8c0,5.1,0.1,5.1,5.6,5.1c6.2,0,12.4,0,18.6,0
	c1.8,0,3.6-0.1,5.1,1c1.8,0,3.6,0,5.4,0c4.9,0.1,9.8,0.2,14.7,0.2c1.7,0,3,0.1,3,2.1c-0.1,17.2-0.2,34.4-0.2,51.6
	c-0.6,0.2-1.2,0.4-1.9,0.6c-1.3-1.6-0.9-3.4-0.9-5.2c0-13.8,0-27.6,0-41.3c0-4.6-0.2-4.8-5.3-4.8c-12.9,0-25.8,0-38.7,0
	c-5,0-5.2,0.2-5.3,4.8c-0.2,11.3,1.3,22.6,0.7,33.9c-0.1,1.7,0.6,3.7-1.8,4.7c0-1.7-0.1-3.5-0.1-5.2c0-1,0-2.1-1.6-2.2
	c-0.5-2.2-2.8-2.5-4.5-3.3c0.3-0.9,1.1-0.9,2-1c1.2-0.2,3,1.4,3.5-0.3c0.5-1.8,1.2-3.9-1-5.4c-1.2-1.9-0.9-4.9-4.5-5.3
	c0.2-0.7-0.9-1.4,0-2.2c2.5-1.2,3.4-2.9,3.4-5.4c0.2-19,0-38,0.1-57c0-1.2,0.3-2.5-1.1-3.4c-1.7-0.5-3.5-0.4-5.3-0.4
	c-23.5,0-47.1,0.1-70.6-0.1c-3.5,0-6.7,1.2-10.1,1.1C88.9,98.4,88.8,97.8,88.1,97.5z"/>
<path class="st1" d="M145.6,60.9c-0.7,0.8-1.7,0.9-2.7,0.8c-6.1-0.3-12.2,0.6-18.3-0.4c-2.3-5-0.6-10.1,4.2-13
	c0.7-0.4,1.5-0.8,2.3-1.2c1.7-1.1,1.8-2.6,1.4-4.2c-0.4-1.6-2-1.5-3.4-1.6c-1.1-0.1-2.3,0-3.4,0c-21.9,0-43.8,0-65.6,0
	c-1.4,0-2.8,0-4.2,0.1c-1.8,0.1-2.8,0.8-2.9,2.5c-0.2,1.8,0.9,2.4,2.7,2.5c4.5,0.4,7.8,2.5,10,5.9c0.8,1.2,1.7,2.5,1,4.1
	c-5.6,3.5-12,5.7-18,8.5c-5.3-4.9-5.4-10.8-0.3-15.3c1.3-1.1,2.3-6.7,1.5-8.1c-0.5-0.9-1.4-0.8-2.3-0.8c-2.4,0-4.8,0-7.2,0
	c-3.6,0-6.1-1.4-6.9-4.6c-0.8-3.3,0.7-5.4,4.6-7c1.1,0.5,2.3,0.9,1.2,2.3c-1.3,1.2-2.9,2.4-1.9,4.3c1,1.9,3.1,2.1,5.2,2.2
	c1.6,0.1,3.3,0,4.9,0c54,0,108,0,162,0c2.4,0,4.8-0.4,7.1,0.8c0.6,0.5,0.6,1.1,0.2,1.8c-1.9,1.2-4.1,0.9-6.2,0.9
	c-22,0-43.9,0-65.9,0c-1.3,0-2.5-0.1-3.8,0c-1.4,0.1-2.9,0-3.3,1.6c-0.4,1.5-0.2,2.9,1.3,3.9c0.6,0.4,1.3,0.7,1.9,1.1
	C145.8,51,147.5,55.6,145.6,60.9z"/>
<path class="st3" d="M39.8,30.3c-0.6-0.4-1.2-0.9-1.7-1.3c1.4-0.1,2.8-0.3,4.1-0.3c61.9,0,123.8,0,185.7,0c5.9,0,8.7,1.9,8.7,5.8
	c0.1,3.2-2.2,5.6-5.8,5.9c-1.9,0.2-3.8-0.1-5.7,0.2c-1.7,0.2-4.6-1.1-4.9,1c-0.3,2.5-1.6,5.5,1.3,7.9c5.3,4.4,5,10.6-0.3,15.3
	c-6-2.7-12.2-5.1-17.9-8.3c-0.6-3.1,2.6-7.4,6.8-9.1c0.8-0.3,1.7-0.5,2.5-0.7c4.9-1,4.9-1,4.1-5.3c-0.1-0.3-0.1-0.7-0.1-1
	c0-0.5,0-0.9,0-1.4c1.3-1.2,3-1,4.6-1c2.4-0.1,4.8,0.1,7.2-0.1c2.1-0.2,4.1-0.8,4.1-3.1c0.1-2.4-2-2.9-4.1-3.2c-2-0.3-4-0.2-6.1-0.2
	c-58.6,0-117.2,0-175.8,0C44.4,31.3,41.9,31.8,39.8,30.3z"/>
<path class="st4" d="M52.6,114.4c4.1,4.1,4.3,6.4,1.2,11.3c-3.1,2.6-6.2,5.2-9.2,7.9c-1.5,1.3-2.6,1.4-4.1,0
	c-2.9-2.7-5.9-5.2-8.8-7.9c-2.9-2.8-3.3-6.4-1.3-9.3c2.2-3,6.1-4.1,10.3-2.8c0.9,0.3,1.7,0.9,2.8,0.3
	C46.7,112.4,49.7,113.1,52.6,114.4z"/>
<path class="st4" d="M216,125.8c-3.1-4.9-2.9-7,1-11.2c2.9-1.5,5.9-2.1,9-0.6c1.5,0.7,2.4-0.1,3.5-0.4c3.8-1.1,7.5,0,9.7,2.8
	c2,2.5,2,6.3-0.4,8.7c-3.2,3.2-6.7,6.1-10,9.1c-1.5,1.3-2.4,0.4-3.4-0.5C222.2,131,219.1,128.4,216,125.8z"/>
<path class="st5" d="M219.1,91.6c-1.4-2.9-1.3-5.7,0.7-8.4c2.7-2,5.8-2.7,9.1-1.5c1.1,0.4,1.9,0.1,2.8-0.2c4.1-1.1,7.4-0.1,9.3,2.6
	c2,2.8,1.5,6.1-1.5,8.8c-2.4,2.3-5.1,4.4-7.4,6.7c-1.5,1.5-2.5,1.3-4-0.1C225.2,96.9,222.1,94.3,219.1,91.6z"/>
<path class="st5" d="M49.8,83.2c2.5,2.6,2.3,5.5,0.9,8.4c-3,2.7-6.2,5.3-9.1,8.1c-1.5,1.4-2.5,1.4-4,0c-2.5-2.4-5.2-4.6-7.7-6.9
	c-2.6-2.5-3.2-5.3-1.3-8.3c1.7-2.7,5.1-3.9,8.8-2.9c1.5,0.4,2.7,0.5,4.3,0C44.7,80.6,47.5,81.2,49.8,83.2z"/>
<path class="st6" d="M256.4,103.7c0,1.8-5.7,8.3-7.7,8.7c-0.2,0-0.5,0.1-0.7,0c-2-0.3-8-7-7.8-8.9c0.3-2.8,2.2-4.3,5.2-4.3
	C253.8,99.1,256.3,100.2,256.4,103.7z"/>
<path class="st7" d="M13.5,103.8c0-2.6,2.3-4.7,5.3-4.6c8.5,0,10.9,1,10.9,4.6c0,1.7-5.8,8.3-7.7,8.6c-0.2,0-0.5,0.1-0.7,0
	C19.4,112.2,13.5,105.5,13.5,103.8z"/>
<path class="st8" d="M216.7,40.4c2.5,1.8,0.9,4.3,1.2,6.5c0.1,0.7-0.8,0.6-1.4,0.6c-7.9,0.3-10.5,2.2-13.1,9.1
	c-6.5,6.1-13.9,11.2-20.9,16.9c-5.5,4.4-11.2,8.7-16.7,13c-6.7-8.5-13.4-17-20.2-25.5c0-1.3-0.1-2.7-0.1-4c-0.1-4.3-2.4-7.4-6.9-8.7
	c-4.4-1.2-2.2-4.2-2.3-6.3c-0.1-2.3,2.5-1.2,3.8-1.2c24.2-0.1,48.3-0.1,72.5-0.1C213.9,40.6,215.3,40.5,216.7,40.4z"/>
<path class="st9" d="M209.1,142.6c-9.2,0.1-18.4,0.1-27.6,0.2c-1.9,0-2.7-0.5-2.7-2.3c0.1-15,0.1-29.9,0.1-44.9
	c0.2,0.4,0.5,0.9,0.5,1.2c-1,5.5,1.6,9.8,5.2,14.1c7.8,9.3,15.1,19,22.6,28.5C207.9,140.4,209,141.3,209.1,142.6z"/>
<path class="st10" d="M177.8,94.7c-27.3,0-54.6,0-82,0c0.6-0.2,1.2-0.5,1.7-0.5c4.5,0.5,8-0.3,9.2-4.7c0.4-1.3,1.4-1.5,2.5-0.5
	c0.3,0.2,0.6,0.5,0.8,0.7c3.8,3.5,8.2,4.8,13.8,4.6c10.9-0.4,21.7-0.2,32.6-0.2c4.9-1.5,9.7-1.7,14.6,0
	C173.4,94.5,175.7,93.7,177.8,94.7z"/>
<path class="st11" d="M171.1,94.1c-4.9,0-9.7,0-14.6,0c3-2.4,6.1-4.9,9.1-7.3C167.7,89.2,169.9,91.4,171.1,94.1z"/>
<path class="st8" d="M66.6,56.4c-2.3-5.5-5.7-9.8-13.5-8.9c-1.2,0.1-1.2-0.5-1.2-1.2c0-1,0.1-2,0-3c-0.3-2,0.5-2.8,2.9-2.7
	c4.4,0.1,8.9,0,13.3,0c20.9,0,41.7,0,62.6,0c1.2,0,3.3-0.8,3,1.4c-0.2,1.9,1.5,4.5-1.1,5.7c-7.7,3.7-8.8,5.3-8.1,13.6
	c-5,7.9-10,15.8-14.9,23.7c-1.2,1.9-1.9,2.8-4.3,1C98.3,80.5,91,75.2,83.8,69.9C78.1,65.4,72.3,60.9,66.6,56.4z"/>
<path class="st8" d="M89,99c2.8-1.6,5.9-2.4,9.3-2.4c25.2,0,50.4,0,75.6,0c0.9,0,1.8-0.2,2.5,0.4c0.7,4.1,0.3,8.2,0.3,12.3
	c0.1,11.5,0,23.1,0,34.6c0,0.9,0.5,2-0.6,2.8c-2.2-0.3-2.3-2.1-3.2-3.4c-3.9-5.5-9.6-7.7-16.8-7.1c-6,0.5-11.3,4.7-13.1,10.3
	c-1.1,3.4-0.7,6.9,0.8,10.2c0.4,0.9,1.1,1.8,1.3,2.8c0.9,3.3-0.6,5-4.3,5c-13.2,0-26.3,0-39.5,0c-1.1,0-2.3,0.3-3.3-0.3
	c0-17.8,0-35.6,0-53.5c0-0.8,0-1.6,0-2.4c0-0.7-0.1-1.5-1.2-1.4c-1,0.1-1,0.9-1,1.5c0,0.8,0,1.6,0,2.4c0,16.8,0,33.6,0,50.4
	c0,2-0.1,3.3-2.9,3.7c-3.3,0.4-5.8,2.6-8.5,5.2c0-1.7,0-2.7,0-3.8c0-18.8,0.1-37.7-0.1-56.5C84.4,105.6,85.6,102,89,99z"/>
<path class="st12" d="M30.7,201.1c0-16.1,0-31.5,0-46.8c0-6.2,3.8-9.5,10.8-9.6c12.5,0,25.1,0,37.6-0.1c2.4,0,3.3,0.5,3.2,2.8
	c-0.2,9.4,0,18.8-0.2,28.2c-0.2,8.8,6,14.5,16,14.7c1.2,0,3.2-0.8,3.6,0.7c0.5,1.7,0.3,3.6,0,5.3c-0.1,1-1.4,0.6-2.3,0.6
	c-18.6,0-37.2,0-55.8,0.1c-2.9,0-2.5-1.4-2.5-3c0-12.7,0-25.3,0-38c0-0.8,0-1.6,0-2.4c0-0.7-0.1-1.5-1.2-1.3
	c-0.7,0.1-0.8,0.8-0.8,1.4c0,0.8,0,1.6,0,2.4c0,12.7,0,25.3,0,38c0,1.8-0.1,3.2-2.7,3.5C34.4,198,32.8,199.4,30.7,201.1z"/>
<path class="st12" d="M178.8,189.1c0.8-7.9,0.3-15.9,0.3-23.8c0-6.2-0.1-12.3-0.2-18.5c-0.1-2,1-2.1,2.8-2.1c15.3,0,30.7,0.1,46,0
	c2.3,0,2.7,0.8,2.6,2.6c-0.1,16.6-0.1,33.2-0.1,49.8c-19.4,0-38.8,0-58.1,0.1c-1.5,0-3,0-2.5-1.9c0.2-0.8-1.4-3.2,1.8-2.2
	c0.2,0.1,0.7,0,0.7,0c0.4-4,4.3-2,6.4-3C178.6,189.9,178.7,189.4,178.8,189.1z"/>
<path class="st13" d="M119.2,188.3c-7,0-13.9,0-20.9,0c-8-0.1-13.9-4.8-13.9-11.1c0-6.4,5.7-11,13.9-11c14.3,0,28.6,0.1,42.9-0.1
	c2.7,0,3.3,0.7,3.3,3c-0.1,7,0,7-7.8,7c-12,0-24,0-36.1,0c-1.1,0-3.1-0.7-3.2,0.8c0,1.8,2.1,1.1,3.3,1.1c13.3,0.1,26.6,0.1,39.9,0
	c2.8,0,4,0.4,3.9,3.2c-0.2,7,0,7-7.9,7C130.9,188.3,125,188.3,119.2,188.3z"/>
<path class="st14" d="M168,207.4c1.6,1.2,3.2,0.8,4.6,0.8c18,0,36,0.1,54-0.1c3.6,0,3.7,1.4,3.7,3.8c0,2.3,0.2,4-3.6,3.9
	c-18.9-0.2-37.8,0-56.6-0.1c-6.7,0-10.9-3-11.2-7.9c-0.3-4.9,3.5-8.7,9.2-8.7c19.8-0.1,39.5,0,59.3-0.2c3.7,0,2.8,2,2.9,3.8
	c0.1,1.9,0.5,3.7-3,3.7c-18.2-0.1-36.5-0.1-54.7,0C171,206.4,169.4,205.9,168,207.4z"/>
<path class="st14" d="M69.5,199.1c9.9,0,19.8,0.1,29.6-0.1c3.3-0.1,3.1,1.6,2.9,3.4c-0.2,1.7,1.2,4.1-2.9,4.1
	c-17.9-0.1-35.7-0.1-53.6-0.1c-0.8,0-1.5-0.1-2.3,0c-1,0.1-2.8-0.6-2.7,0.9c0.1,1.3,1.8,0.8,2.8,0.8c18.2,0,36.5,0.1,54.7-0.1
	c3.7,0,4.1,1.2,4,3.9c0,2.6-0.2,4-4,3.9c-18.6-0.2-37.2-0.1-55.9-0.1c-7.6,0-12.1-3.9-11.3-9.3c0.6-4.2,4-7.2,8.9-7.2
	C49.7,199.1,59.6,199.2,69.5,199.1C69.5,199.1,69.5,199.1,69.5,199.1z"/>
<path class="st15" d="M170.5,165.5c0,8.1,0,16.1,0,24.6c-3.4-1.3-5.9-3.1-8.4-4.9c-2.4-1.8-4.4-2-6.9-0.1c-2.4,1.9-5.3,3.3-8.7,5.4
	c0-9.2,0-17.8,0-26.4c-0.6-3.6,1.8-2.1,3.2-1.4c5.1,2.4,10.2,2.9,15.6,0.9c1.6-0.6,2.9-1.9,4.8-1.5l0,0
	C171.1,163.2,170.6,164.4,170.5,165.5z"/>
<path class="st2" d="M170.3,162.2c-7,4.4-14.3,5.3-21.7,0.8c-2.1-1.2-1.8,0.1-2,1.1c-0.3-0.2-0.5-0.5-0.8-0.7
	c-1.1,2.5-3.5,1.3-5.4,1.4c-12.8,0.1-25.6,0.1-38.4,0c-1.3,0-2.8,0.5-3.9-0.7c14.7,0.1,29.3,0.1,44,0.1c2.7,0,3.5-2.7,1.6-5.8
	c-2.3-3.7-3-7.6-2-11.7c1.7-6.3,7.9-11.1,14.9-11.6c8-0.6,14.9,3,18,9.3c0.4,0.7,0.7,1.4,1,2.2c1.8,5.6,0.5,10.8-3.2,15.5
	C171.7,161.5,171,160.6,170.3,162.2z"/>
<path class="st16" d="M172.5,162.2c0.2-1,0-2.2,0.6-2.9c2.9-3.9,3.1-8.2,2.6-12.6c1.7-3.1,0.5-6.4,0.6-9.5
	c0.2-12.6-0.1-25.2-0.2-37.8c0-0.8,0.2-1.5,0.3-2.3c0.9,1,0.5,2.1,0.5,3.2c0,20.2-0.1,40.4,0.1,60.7c0,3.2-1.1,4-4.3,3.3
	C172.6,163.5,172.5,162.8,172.5,162.2z"/>
<path class="st17" d="M158.8,200.8c0-3.2,0.1-6,0-8.7c0-1.3,0.4-1.9,1.9-1.7c0.9,0.1,1.8-0.1,2.6,0c1.4,0.2,3.8-0.9,3.7,1.5
	c-0.1,2.1,1.9,5.1-2.5,5.8C162.5,198,161,199.5,158.8,200.8z"/>
<path class="st18" d="M79.8,131.9c0.8-0.9,1.5-1.8,2.3-2.7c0.1,3.7,0,7.3,0.2,11c0.1,2-0.6,2.9-3,2.6c-1.9-0.2-3.7-0.1-5.6-0.2
	c2-3.4,4-6.7,6.1-10.1c-0.2-0.2-0.2-0.3-0.1-0.4C79.7,132,79.8,131.9,79.8,131.9z"/>
<path class="st19" d="M172.6,178.3c3.3-0.7,5.1,0.1,4.5,3.3c-0.1,1.6-0.2,3.1-0.2,4.7c0,1.4-0.5,2-2.2,2c-1.7,0-2.2-0.6-2.1-2
	C172.6,183.7,172.6,181,172.6,178.3z"/>
<path class="st20" d="M172.6,166.3c6-1.2,3.7,3,4.5,5.3c-0.1,0.7-0.1,1.3-0.2,2c-0.1,1.3,0.3,2.7-2.2,2.7c-2.4,0-2.2-1.3-2.2-2.6
	C172.6,171.2,172.6,168.8,172.6,166.3z"/>
<path class="st21" d="M154.7,188.3c2.7-3,5.1-3.1,7.6-0.3C159.8,188.6,157.5,188.3,154.7,188.3z"/>
<path class="st2" d="M170.5,165.5c-0.1-1.1-0.2-2.2-0.3-3.3C172.5,163.2,171,164.3,170.5,165.5z"/>
<path class="st0" d="M79.8,131.9c0,0.2,0,0.4,0,0.7c-0.6-0.1-1.2-0.2-1.4-0.8c-0.1-0.3,0-0.8,0.4-0.7
	C79.2,131.2,79.5,131.6,79.8,131.9z"/>
<path class="st0" d="M91,78.2c-0.3,0.3-0.4,0.6-0.7,0.7c-0.6,0.2-0.9-0.2-0.9-0.6c0-0.2,0.4-0.6,0.7-0.6C90.3,77.7,90.6,78,91,78.2z
	"/>
<path class="st22" d="M39.8,30.3c1.4,0.1,2.8,0.1,4.2,0.1c60.6,0,121.2,0,181.8,0c1.1,0,2.3,0,3.4,0c3,0.1,5.3,1.3,5.3,4.1
	c0,2.8-2.2,4.1-5.3,4.2c-4.2,0.1-8.3,0.1-12.5,0.2c-1.5-0.1-3-0.2-4.5-0.2c-55.9,0-111.7,0-167.6,0c-0.9,0-1.8,0-2.7,0
	c-3,0.1-5.7-0.4-6.4-3.5C34.8,32.4,37.1,31.2,39.8,30.3z"/>
<path class="st22" d="M134.9,59.8c-1.4,0-2.8,0-4.2,0c-4.6,0-5.1-0.4-4-4.3c1.1-4.2,5.3-6.6,10-5.8c4.4,0.8,7.3,4.5,6.9,8.5
	c-0.1,1.4-0.8,1.7-2.2,1.6C139.2,59.7,137,59.8,134.9,59.8z"/>
<path class="st22" d="M46.6,56.9c0-3.9,3.4-7.3,7.6-7.7c3.8-0.4,8.3,2.4,9.3,5.6c0.4,1.1-0.3,1.4-1.1,1.7c-3.8,1.7-7.6,3.4-11.4,5.2
	c-1.5,0.7-2.4,0.8-3.1-0.8C47.4,59.5,46.7,58.2,46.6,56.9z"/>
<path class="st22" d="M215.3,49.2c2.7,0.3,5.5,1.4,7,4.2c1.7,2.9,0.8,5.6-0.8,8.2c-0.7,1.1-1.3,0.7-2.1,0.3c-4-1.8-8.1-3.6-12.1-5.5
	c-0.9-0.4-1.3-0.7-0.9-1.8C207.6,51.7,211.2,49.2,215.3,49.2z"/>
<path class="st23" d="M53.8,120.7c-0.2,1.6-1.1,3-2.4,4.3c-2.3,2.1-4.7,4.1-7,6.2c-1.3,1.3-2.2,1.5-3.6,0.1
	c-2.4-2.3-5.1-4.4-7.5-6.7c-2.3-2.2-3-4.7-0.7-7.3c2.2-2.4,5.1-3.1,8.1-1.4c1.7,0.9,2.7,0.3,4.1-0.2C49.1,114,53.9,116.6,53.8,120.7
	z"/>
<path class="st23" d="M222.3,115c0.5,0.1,1.3,0,1.7,0.3c2.2,1.4,4.1,1.2,6.5,0.1c2.5-1.1,4.9-0.1,6.6,1.9c1.7,2,2,4.3,0.2,6.2
	c-2.8,3-6.1,5.6-9.1,8.5c-0.9,0.8-1.5,0.4-2.2-0.2c-2.8-2.5-5.8-5-8.5-7.6c-1.7-1.7-2.1-3.8-0.8-5.9
	C217.9,116.2,219.7,115.2,222.3,115z"/>
<path class="st23" d="M240.2,87.6c-0.1,1.4-0.7,2.7-1.8,3.7c-2.7,2.3-5.2,6.7-8.1,6.5c-3.6-0.3-6.2-4.4-8.9-7.1
	c-2-2-1.3-5.3,1.2-6.7c0.9-0.5,2.6-1.2,3.1-0.9c3.9,2.8,8.4-1.6,12.3,0.9C239.3,84.9,239.9,86.2,240.2,87.6z"/>
<path class="st23" d="M29.7,88.3c-0.2-3.8,4-6.4,7.6-4.8c1.8,0.8,3,0.8,4.7,0c2.6-1.2,5-0.5,6.6,1.6c1.5,1.9,1.4,4.1-0.4,5.8
	c-2.3,2.2-4.8,4.3-7.2,6.4c-0.6,0.6-1.3,1.3-2.2,0.5c-2.8-2.8-6.6-4.9-8.6-8.3C29.9,89,29.8,88.5,29.7,88.3z"/>
<path class="st24" d="M245.6,100.9c1.7,1.2,3.4,1,5.2,0.2c1.1-0.4,2.2,0.4,2.9,1.2c0.8,1,0.8,2.2-0.1,3.1c-1.4,1.4-3,2.7-4.5,4.1
	c-0.1,0.1-0.2,0.2-0.3,0.2c-3.1-0.3-4.3-2.7-6-4.5c-1.1-1.2-0.8-3,1.3-3.9C244.6,101.2,245.1,101.1,245.6,100.9z"/>
<path class="st24" d="M27.6,104.1c-0.9,2.7-3.6,4.1-5.7,5.9c-0.5,0.4-1.1-0.3-1.5-0.7c-1.3-1.1-2.6-2.1-3.7-3.3
	c-0.5-0.6-1.1-1.4-1.1-2c0-1.6,2.1-3.4,2.9-2.8C21.2,103.3,26.4,98.5,27.6,104.1z"/>
<path class="st25" d="M128.7,135c0-0.3,0-0.7,0-1c0-2.8,1.1-6.4-0.4-8.2c-1.6-1.9-5.9-0.6-9-0.6c-2.2,0-2.7-0.8-2.8-2.6
	c-0.3-7.6-0.4-7.8,8.4-7.6c3.2,0.1,4-0.7,4-3.5c-0.2-7.6-0.1-7.5,8.6-7.4c2.4,0,2.9,0.8,3,2.8c0.1,2.6-1.5,6.1,0.8,7.6
	c1.8,1.3,5.6,0.5,8.5,0.4c2.4-0.1,3,0.7,3,2.7c0.2,7.5,0.2,7.7-8.2,7.5c-3.7-0.1-4.4,1-4.2,3.9c0.3,4.6,0,9.2,0.1,13.8
	c0,2-0.6,2.7-3,2.7c-8.7,0.1-8.7,0.2-8.7-7.4C128.7,137,128.7,136,128.7,135z"/>
<path class="st26" d="M64,172.4c0-0.7-0.1-1.4,0-2c0.6-3.3-0.7-4.9-4.6-4.2c-2.5,0.4-3.2-0.7-3.2-2.8c0-2.1,0.8-2.9,3.1-2.6
	c3.8,0.6,5.4-0.6,4.7-4.1c-0.4-1.9,0.4-2.8,2.9-2.8c2.4,0,3.7,0.6,3.2,2.8c-0.7,3.5,1.1,4.6,4.8,4.1c2.3-0.3,3.4,0.3,3.4,2.7
	c0,2.3-0.9,3.1-3.3,2.7c-4.1-0.7-5.3,1-4.8,4.4c0.3,1.9-0.1,3.8,0.1,5.7c0.2,2.2-0.7,2.9-3.2,2.9c-2.3,0-3.2-0.7-3-2.7
	C64.1,175.1,64,173.7,64,172.4z"/>
<path class="st23" d="M198.4,172.4c0-0.6-0.1-1.1,0-1.7c0.7-3.5-0.6-5.3-4.9-4.6c-2.5,0.4-2.8-0.9-2.9-2.7c-0.1-2.1,0.7-3,3-2.6
	c4.1,0.7,5.4-1,4.8-4.4c-0.4-2.3,1-2.5,3.1-2.5c1.9,0,3.3,0.3,2.9,2.3c-0.7,3.5,0.6,5.3,5,4.6c2.5-0.4,2.8,1,2.8,2.8
	c0.1,2.1-0.8,3-3,2.6c-4.2-0.7-5.2,1.1-4.8,4.4c0.2,1.8-0.1,3.6,0.1,5.4c0.2,2.1-0.2,3.2-3.2,3.2c-3.2,0-3.1-1.5-3-3.4
	C198.5,174.7,198.4,173.5,198.4,172.4z"/>
<path class="st27" d="M158.6,137.1c8.5,0,15.3,6,15.4,13.4c0,7.3-7,13.6-15.2,13.6c-8.4,0-15.2-6-15.2-13.5
	C143.4,143,150,137.1,158.6,137.1z"/>
<path class="st23" d="M138.3,133.3c0,2.4-0.2,4.7,0.1,7c0.3,2.8-1.1,3.1-3.7,3c-2.3-0.1-4.1,0.1-3.9-2.9c0.3-4.9,0-9.9,0.1-14.8
	c0.1-2.1-0.8-2.8-3.1-2.7c-1.6,0.1-3.3,0-4.9,0c-4.1,0-5.3-1.6-4.2-5.1c0.4-1.3,1.3-1.1,2.3-1.1c2.4,0,4.8-0.1,7.2,0
	c1.9,0,2.8-0.6,2.7-2.4c-0.1-1.8,0.2-3.6-0.1-5.4c-0.4-2.8,1.1-3.3,3.9-3.3c2.7,0,3.8,0.6,3.7,3.2c-0.1,7.7,0,7.9,8.9,7.8
	c3.3,0,3.2,1.3,3.3,3.5c0.1,2.4-0.8,3-3.4,3c-8.9,0-8.9,0-8.9,7.8C138.3,131.8,138.3,132.6,138.3,133.3z"/>
<path class="st28" d="M167.4,150.5c0,3.6-2.9,7-6.7,7.6c-1,0.2-2.6,0.7-2.9-0.6c-0.3-1.1,1.3-1.1,2.2-1.3c2.8-0.6,4.5-2,5-4.5
	c0.7-3.2-1.4-6.2-4.9-7c-3.4-0.7-6.8,1.1-8,4.2c-0.3,0.9,0.2,2.5-1.5,2.2c-1.7-0.3-0.9-1.8-0.6-2.8c1.2-3.7,5.3-6.2,9.5-5.7
	C164.1,143.2,167.4,146.5,167.4,150.5z"/>
<path class="st29" d="M132.5,112c-1-1.6-1.2-3.2-0.1-5.5C133.5,108.9,133.1,110.4,132.5,112z"/>
<path class="st30" d="M329.4,318.2c-0.8,1.2-1.5,0.9-2.3,0c-1.1-1-0.9-2.2-0.9-3.5c-0.1-2,0.1-4.1-0.1-6.1c-0.4-3.2-2.2-4.1-5.6-3.8
	c-4.6,0.4-9.2-0.2-13.8,0.1c-2.9,0.2-5-2.1-6.4-5.3c0,5.2,0,9.9,0,14.5c0,1.4,0.4,2.9-1,4c-1.1,1.1-1.9,1.1-2-0.6
	c-0.1-2.4-0.1-4.9,0-7.3c0.1-1.5-0.5-2-2.1-2c-2.8,0.1-5.6,0.1-8.4,0c-1.5,0-1.9,0.5-1.9,1.8c0.1,2.4,0.1,4.9,0,7.3
	c0,1.2-0.4,2.1-1.9,0.9c-1.4-4.6-0.7-9.3-0.4-14c0.1-1.4,1.7-2.1,3-2.7c3.2-1.6,6.3-3.1,9.3-5c-2.7,0.7-5.1,2.2-7.9,2.5
	c-2.6,0.4-5.2,0.3-7.7-0.4c-2.6-0.7-3.1-1.6-1.9-3.8c0.6-1.2,1.5-2.2,1.7-3.6c-2.5,2.9-4.7,6.2-9.2,6.6c-4.3,0.4-7.6-1.4-9.7-4.9
	c-0.7,0.4-0.6,1.3-1.1,1.7c-3.8,3.1-3.5,7.3-3.4,11.4c0.1,3,0,5.9,0,8.9c0,1.1,0.1,2.3-0.8,3.2c-0.7,1-1.4,1-2.2,0
	c-1-1.1-0.9-2.5-0.9-3.8c0-3.7,0-7.4,0-11.1c0-1.1,0.4-2.2-0.8-3.1c-1.4,0.6-1.2,1.9-1.5,2.9c-0.9,3.8-1.7,7.6-2.5,11.4
	c-0.3,1.3-0.5,2.7-1.7,3.6c-3,1.6-2-0.7-1.8-1.6c1.1-5.2,2.2-10.5,3.4-15.6c0.4-1.6,0.5-2.7-1.5-3.3c-0.7-0.2-1.6-0.7-1.9-1.2
	c-1.8-3.6-5.3-3-8.5-3c-10.7,0-21.4-0.1-32,0.1c-2.6,0-3.6-0.6-3.4-3.1c0.2-3.1,0.2-6.2,0-9.2c-0.1-2.2,0.6-3.1,3.2-3
	c4.8,0.2,9.7,0.1,14.5,0c1,0,2.6,0.4,2.4-1.3c-0.2-1.4,1.2-3.5-1.7-4c-2.3-0.4-4.4-1.2-5.9-2.7c-3.6-3.6-8.1-6-12.3-8.9
	c-11-7.6-16-18.1-16.7-30.5c-0.1-1.6,0.5-2.3,2.3-2.2c2.7,0.1,5.4-0.1,8.1,0.1c2,0.1,3.1-0.3,2.7-2.3c-0.6-2.6,0.8-3,3.3-3
	c14.2,0.1,28.3,0.1,42.5,0c2.4,0,4,0.3,3.4,3c-0.6,2.7,1.4,2.5,3.2,2.3c1.7-0.1,4.2,1,4-2.3c-0.3-4.7-0.1-9.4-0.1-14.3
	c-2.1,0.4-3.5,1.6-5.2,2.3c-3.5,1.6-7.1,0.8-8.8-2c-1.9-2.9-1-6.2,2.5-8.2c9.1-4.9,18.2-9.7,27.4-14.4c2.1-1.1,3.2-2.2,2.9-4.5
	c-0.2-2.2-0.1-4.5-0.1-6.9c-2,0.2-3.3,1.4-4.8,2.1c-3.7,1.8-7.5,1-9.3-2c-1.8-2.9-0.7-6.2,2.9-8.1c13.6-7.2,27.2-14.4,40.8-21.5
	c1.8-0.9,3.1-1.9,2.6-4c-0.2-0.8,0-1.6,0-2.5c0-4.7,0-4.7-5-5.1c-1.7-0.1-2.9-0.7-2.9-2.3c0.1-1.4,1.3-2.1,2.8-2c0.2,0,0.5,0,0.7,0
	c3.4,0.5,4.9-0.5,4.4-3.9c-0.3-1.7-0.4-3.9,2.4-3.9c2.4,0.1,2.6,2.1,2.3,3.7c-0.6,3.5,1,4.5,4.5,4c1.8-0.2,3.2,0.3,3.1,2.3
	c-0.1,1.8-1.5,2-3.1,2c-4.5,0.2-4.1,0.2-4.6,4.5c-0.5,4.2,1.2,6.5,5.3,8.5c12.5,6.2,24.7,12.9,37.1,19.4c1.9,1,3.8,2,4.3,4
	c0.7,2.3,0.3,4.5-1.8,6.2c-2.1,1.6-4.5,1.9-6.9,0.9c-1.9-0.8-3.7-1.8-5.5-2.8c-0.2,0.4-0.4,0.5-0.4,0.7c-1.4,6.8,1.2,11.1,8.4,14
	c7.3,3,14.1,7.2,21.1,10.9c4.2,2.2,5.5,5.5,3.4,8.6c-2,3-5.6,3.5-9.7,1.5c-1.3-0.7-2.5-1.7-4.4-1.9c0,6.4-0.1,12.7,0,19.1
	c0,2.2,5.4,4.4,7.4,3.2c3.5-2.1,7-2.3,10.3,0c1.4,1,2.3,0.6,3.5,0c9.7-4.8,15.6-3.8,22.7,3.9c1.9,2.1,3.8,2.8,6.6,2.7
	c3.1-0.1,7.1-1.3,9.1,0.5c2.1,1.9,0.6,5.6,0.7,8.6c0.1,3.5-0.1,7,0.1,10.5c0.1,2-0.7,2.9-2.9,2.5c-2.7-0.4-3.1,0.7-3.1,2.9
	c0,13.9-0.2,27.9-0.2,41.8c0,2.4-0.7,3.1-3.4,3.1c-22.6-0.1-45.2-0.1-67.8-0.1c-4.5,0-4.5,0-3.5,4.3c0.2,0.9,0.5,1.8,0.5,2.7
	c-0.1,1.4-0.9,1.6-1.8,0.4c-1.5-1.2-1.4-2.9-1.8-4.5c-0.3-1.1-0.4-2.2-0.8-3.3c-0.4-1.1-1.2-1.7-2.5-1.6c-1.5,0.1-1.7,1.1-1.8,2.2
	C329.8,313.4,330.6,315.8,329.4,318.2z"/>
<path class="st31" d="M254.9,318.2c0-6.2-0.1-12.5-0.1-18.7c0-0.9-0.1-1.8,0.9-2.5c2.4-1.5,3.3-3.8,4.1-6.5c1.2,2,1.9,3.9,3.9,5.1
	c4.7,2.9,10.6,1.6,13.1-3.1c0.9-1.7,1.9-2.7,4.1-3c-0.4,2.3-1.3,4.3-2.9,6c-1.5,1.5-0.7,2.1,1,2.4c5.2,1.1,10.3,0.8,14.7-2.3
	c1.1-0.7,2.2-1.4,3.1-0.1c1,1.5-0.9,1.6-1.6,2c-3.2,1.7-6.4,3.4-9.7,4.9c-1.8,0.8-2.6,1.9-2.5,3.8c0.1,4,0,8,0,12
	C273.7,318.2,264.3,318.2,254.9,318.2z"/>
<path class="st32" d="M299.3,318.1c0-6.8,0-13.6,0-20.5c2-0.1,1.7,1.3,2,2.1c1.7,4.2,5.9,5.9,10.2,3.9c1.4-0.7,2.3-0.7,3.6,0.1
	c1.8,1,3.8,0.9,5.8,0.4c1-0.3,2.1-1.9,2.8-1c1.2,1.6,3.6,2.6,3.6,5c-0.1,3.4-0.1,6.7-0.2,10.1C317.8,318.2,308.5,318.2,299.3,318.1z
	"/>
<path class="st33" d="M390.6,178.6c0.1,1.6-0.4,3.1-1.6,4.3c-2.9,2.8-6,5.5-9,8.3c-1.1,1-1.9,0.6-2.8-0.2c-2.8-2.6-5.6-5-8.3-7.7
	c-2.5-2.5-2.7-5.8-0.7-8.5c1.9-2.5,5.3-3.6,8.6-2.3c1.5,0.6,2.7,0.3,4.1-0.1C385.7,170.9,390.5,174,390.6,178.6z"/>
<path class="st34" d="M245.3,318.2c1.2-5.9,2.5-11.8,3.7-17.6c0.3-1.2,0.9-2,2.4-1.9c2,0.1,1.3,1.4,1.3,2.2c0,5.8,0,11.6,0,17.4
	C250.3,318.2,247.8,318.2,245.3,318.2z"/>
<path class="st5" d="M377.8,142.7c2.2,1,4.8,0.4,7.6,0.1c2.7-0.3,4.8,1.1,5.9,3.3c1.2,2.2,1.1,4.5-0.7,6.3c-2.6,2.7-5.5,5.1-8.2,7.7
	c-0.8,0.7-1.5,0.8-2.3,0c-2.7-2.6-5.6-5-8.2-7.7c-1.8-1.8-1.8-4.2-0.7-6.4C372.4,143.9,374.5,142.8,377.8,142.7z"/>
<path class="st35" d="M329.4,318.2c0-2.8-0.1-5.5-0.1-8.3c0-0.9-0.3-2.4,1.5-2c1.5,0.4,3.8-1.2,4.3,1.5c0.5,2.9,1.2,5.8,1.8,8.7
	C334.5,318.2,331.9,318.2,329.4,318.2z"/>
<path class="st25" d="M390.1,163.7c0.1-2.7,2.3-4.6,4.9-4.5c7.6,0.2,9.7,1.2,9.7,4.3c0,1.3-0.7,2.4-1.7,3.3
	c-1.2,1.2-2.6,2.3-3.8,3.5c-1.2,1.2-2.3,1.5-3.6,0.1C393.7,168.1,390.3,166.8,390.1,163.7z"/>
<path class="st8" d="M291.2,248c-4.7-4.8-10.8-5-15.9-7.2c-1.6-0.7-2.2-1.2-2.2-2.8c0.1-19.7,0.1-39.4,0-59c0-1.5,0.6-2.3,2-3.1
	c9.6-5,19.1-10,28.6-15c1.4-0.8,2.5-0.8,4,0c9.4,5,18.8,10,28.3,14.9c1.7,0.9,2.3,1.9,2.3,3.6c-0.1,19.6-0.1,39.1,0,58.7
	c0,2.3-0.7,3.1-3.2,2.9c-2.5-0.2-5,0.1-7.4-0.1c-2.9-0.2-4.2,0.5-3.8,3.4c0.2,1.6,0,3.3,0,4.9c0,1.1,0.3,2.2-1.7,2.2
	c-2,0-1.8-1-1.8-2.2c0-6.7,0.1-13.3,0-20c-0.1-5.5-2.7-9.7-8.2-12.2c-5.3-2.4-10.5-1.8-15.2,1.4c-3.7,2.6-5.6,6.1-5.6,10.3
	C291.2,234.9,291.2,241,291.2,248z"/>
<path class="st13" d="M220.8,225.2c6.6,0,13.2,0.1,19.9,0c2,0,2.8,0.5,2.7,2.4c-0.7,10.8-2.3,21.4-7.3,31.3c-2,3.8-4.3,7.4-8,10.1
	c-5.1,3.7-10.3,3.6-15.2-0.3c-4.5-3.6-7.2-8.3-9.3-13.3c-3.9-9.1-5.2-18.6-5.7-28.2c-0.1-1.9,1-1.9,2.5-1.9
	C207.1,225.2,213.9,225.2,220.8,225.2z"/>
<path class="st23" d="M381.1,275.7c0,10.1-0.1,20.3,0.1,30.4c0,2.5-0.9,3.1-3.4,3c-4.4-0.2-8.8-0.1-13.1,0c-1.8,0-2.6-0.3-2.6-2.1
	c0.1-13.3,0.1-26.6,0-39.9c0-2.5,1.6-2.1,3.2-2.2c1.4-0.1,4,0.8,4-0.7c0-1.7-2.6-0.9-4-0.9c-2.4,0.1-3.4-0.5-3.3-2.9
	c0.2-5.1,0.2-10.2,0-15.3c0-1.9,0.6-2.5,2.7-2.4c4.6,0.1,9.2,0.1,13.8,0c2.1-0.1,2.6,0.6,2.6,2.4C381,255.3,381.1,265.5,381.1,275.7
	z"/>
<path class="st8" d="M410.7,308.9c-8.5,0-17.1,0.1-25.6,0.2c-1.6,0-2.1-0.4-2.1-1.9c0.1-11.1,0.1-22.1,0.2-33.2c1.1-0.9,2.4-1,3.8-1
	c6.7,0,13.5-0.1,20.2,0c3.7,0.1,4,0.4,4,3.8c0,9.8,0,19.6,0,29.4C411.1,307.1,411.4,308.1,410.7,308.9z"/>
<path class="st36" d="M258.2,175.7c0-1.7,1-2.9,2.5-3.7c14.1-7.4,28.2-14.8,42.3-22.2c1.8-1,3.6-0.9,5.4,0.1c14,7.4,28,14.7,42,22.1
	c2.5,1.3,3.4,3.2,2.1,5.7c-1.1,2.2-3.9,2.8-6.6,1.3c-12.5-6.5-24.9-13-37.3-19.7c-2.3-1.2-3.9-1.1-6,0.1
	c-12.2,6.5-24.4,12.9-36.7,19.4C262,180.7,258.2,179.2,258.2,175.7z"/>
<path class="st37" d="M318.3,238.9c0,3.5-0.1,7,0,10.4c0,1.4-0.4,2-2.1,1.9c-7-0.1-13.9-0.1-20.9,0c-1.9,0-2.2-0.8-2.2-2.2
	c0.1-7-0.1-13.9,0.1-20.9c0.2-6.2,5.8-10.9,12.6-10.8c6.6,0,12.2,4.9,12.4,11.1C318.4,231.9,318.3,235.4,318.3,238.9
	C318.3,238.9,318.3,238.9,318.3,238.9z"/>
<path class="st38" d="M303.7,264c0.1,0.5,0.2,0.6,0.1,0.7c-1,5.4-1,5.4,5.1,5.4c3.6,0,7.2-0.2,10.8,0.1c3.2,0.2,4.7-0.7,4.1-3.7
	c-0.1-0.5,0-1,0-2c4,3.7,7.9,6.9,12.7,8.9c1.2,0.5,1.1,1.7,1.1,2.7c0,4.7-0.7,9.8-4.5,12.8c-3.7,2.9-7.5,6.5-11.6,8.2
	c-14.7,6.3-32.9-5.2-32.8-20.1c0-0.8-0.2-1.7,0.8-2.2C295.1,272.4,299.8,268.7,303.7,264z"/>
<path class="st38" d="M280.4,277c0.4,3.2,2.5,5.1,5.8,6.4c-7.2,6.2-15.4,8-24.6,5.6c-1.4-0.3-2.2-1-2.8-2.3c-1.3-3-3.9-4.8-7.3-5.2
	c-1.9-0.2-2.7-1-3.5-2.3c-2.9-4.5-3.7-9.3-3.2-14.5c0.2-1.5,0.9-2.1,2.4-2.4c4.7-0.8,9-2.5,12.8-5.2c0.1,0.3,0.3,0.5,0.2,0.6
	c-1.7,4-1.7,4,3.3,3.9c5.8-0.1,11.2-1.2,15.2-5.4c1.1-1.1,1.7-0.8,2.6,0.1c1,0.9,2.3,1.7,3.3,2.6c1.6,1.4,4.7,1.5,5.1,3.4
	c0.3,1.7-1.2,3.6-1.9,5.5c-0.1,0.3-0.5,0.7-0.6,0.6c-2.8-1.3-5.9-0.8-8.9-1.4c-0.9-0.4-1.7-1.1-2.6-0.1c-0.6,0.8-0.2,1.5,0.3,2.2
	c0.5,0.7,1.1,1.3,0.9,2.2c-0.4,1.2-1.4,1.5-2.6,1.5c-4.3,0-8.7,0.5-13-0.3c-0.8-0.4-1-1-0.9-1.7c0.1-0.6,0.6-1,1-1.5
	c0.8-0.7,1.6-1.6,0.7-2.6c-0.9-1-1.8-0.1-2.6,0.3c-0.3,0.1-0.6,0.3-0.9,0.4c-1.1,0.2-2.2-0.2-3.3-0.2c-3,0-5.2,2.1-4.9,4.7
	c0.2,2.4,3.1,4.3,5.8,3.9c1.3-0.2,2.5-1,3.9-0.4c0.9,0.5,1.2,1.4,1.8,2.2c3.6,4.3,10,4.3,13.7-0.1c0.6-0.7,1.1-1.6,2-2
	C279.2,275.1,279.9,276,280.4,277z"/>
<path class="st8" d="M400.3,242.7c4.9,0,9.9,0.1,14.8,0c1.7,0,2.4,0.4,2.3,2.1c-0.1,4.9-0.1,9.8,0,14.7c0,1.5-0.6,2-2.1,1.9
	c-10.2-0.6-20.4-0.2-30.6-0.2c-1.4,0-1.7-0.5-1.7-1.6c0.1-5,0.1-10,0-15c0-1.6,0.7-1.8,2.2-1.8C390.2,242.7,395.2,242.7,400.3,242.7
	z"/>
<path class="st39" d="M269.5,241.4c1.9,0.4,4.1,0.6,6.2,1.4c2.7,0.9,5.4,1.9,8.2,2.7c4.9,1.4,9,6.8,9.2,11.5c0.1,2.3-1.9,3.5-4,2.4
	c-2.8-1.4-5.3-3.1-7.5-5.2c-1.4-1.4-2.1-1.8-3.7,0.1c-3.5,4.3-8.8,5.4-14.3,5.5c-1.2,0-2.1-0.2-1.4-1.6c0.1-0.2,0.1-0.4,0.1-0.6
	c0-1.4,0.9-3.4-0.4-4.1c-1.5-0.9-2.1,1.3-3.2,2.1c-3.3,2.5-7.2,3.7-11.2,4.8c-2.7,0.8-3.3-0.2-2.7-2.3c1.7-6.4,5.6-11.3,12.3-14.1
	C260.9,242.5,265,241.9,269.5,241.4z"/>
<path class="st8" d="M342.7,242.7c4.9,0,9.9,0.1,14.8,0c1.8,0,2.6,0.3,2.6,2.1c-0.1,4.8-0.1,9.6,0,14.4c0,1.5-0.5,1.9-2.1,1.9
	c-7-0.1-13.9-0.1-20.9,0c-1.3,0-2-0.5-2.7-1.4c-1.5-2-3.3-3.8-5.6-4.8c-2.6-1.1-3.2-2.7-3.2-5.3c0.2-7,0.1-7,7.6-7
	C336.4,242.7,339.6,242.7,342.7,242.7z"/>
<path class="st37" d="M271.2,201.8c0,8.4,0,16.2,0,24.1c0,4,0,8,0,12c0,1,0.4,2.1-1.5,2c-5.3-0.2-10.2,1.2-15.3,3.5
	c0-4.8,0-9.1,0-13.4c0-5.7,0-11.5,0-17.2c0-1-0.2-2,1.1-2.7C260.5,207.4,265.6,204.7,271.2,201.8z"/>
<path class="st8" d="M359.4,308.9c-6.7,0-13.5,0.1-20.2,0.1c-0.8,0-1.9,0.4-2.3-0.7c-0.5-1.1,0.6-1.4,1.3-1.8
	c2.1-1.5,3.8-3.4,3.8-5.9c0-2,1-2.4,2.9-2.5c0.9,0,1.8-0.1,2.7-0.3c1.5-0.3,2.7-0.8,1-2.3c-1.6-1.4-2.2-3.3-2.9-5.1
	c-1.6-3.9-2.3-4.7-6.6-6.9c2.3-0.4,4.1-1.1,5.4-2.7c1.4-1.6,1.8-3.5,1.5-5.5c-0.4-0.6-0.2-1.2,0.4-1.6c0.5-0.4,1.2-0.6,1.9-0.6
	c3.6,0,7.9-1.3,10.8,0.8c2.3,1.7,0.7,5.2,0.8,7.9c0.1,8,0.1,16.1,0,24.2C359.8,306.9,360.1,308,359.4,308.9z"/>
<path class="st40" d="M313.7,268.4c-1.9,0-3.8-0.1-5.7,0c-2.2,0.1-2.9-0.8-2.3-2.6c0.4-1.1,0.5-2.2,0.5-3.3c0-0.9,0.2-2-1-2.4
	c-1.3-0.4-1.6,0.8-2.1,1.5c-3.1,4.1-6.6,7.7-11.5,10c-0.6,0.3-1.3,1.3-2,0.5c-0.4-0.4-0.4-1.4-0.3-2c2.2-10.8,7.8-15.7,20.3-17.1
	c6.4-0.7,12.7,0,18.4,3.4c5.4,3.2,7.6,8.1,9,13.5c0.1,0.4,0.1,0.9-0.2,1.1c-0.6,0.5-1.3,0-1.8-0.3c-4.4-2.4-8-5.5-11-9.3
	c-0.6-0.7-0.9-1.9-2.2-1.5c-1.5,0.5-0.3,1.5-0.3,2.3c0.1,6.8,2.5,6-5.8,6.1C315,268.5,314.4,268.4,313.7,268.4z"/>
<path class="st27" d="M340.1,238.2c0-12.4,0-24.1,0-36.4c3.9,2,7.3,4.2,11.2,5.7c4.6,1.8,6.2,4.5,5.7,9c-0.5,4.4-0.1,8.8-0.1,13.2
	c0,0.8,0.4,2.1-1.3,1.9C349.2,230.9,344.3,233.3,340.1,238.2z"/>
<path class="st41" d="M220.5,291.7c-5.5,0-11-0.1-16.5,0c-1.9,0-2.6-0.4-2.5-2.2c0.2-3-1.1-7,0.6-8.9c1.8-2,6.3-0.6,9.6-0.6
	c8.3-0.1,16.6,0,24.9-0.1c2.1,0,3,0.4,2.9,2.5c-0.2,2.9,1,6.8-0.6,8.6c-1.7,2-6.1,0.5-9.3,0.6C226.6,291.8,223.5,291.7,220.5,291.7z
	"/>
<path class="st42" d="M410.7,308.9c0-10.6-0.1-21.3,0.1-31.9c0-2.5-0.8-3.1-3.4-3.1c-8.1,0.2-16.2,0.1-24.2,0.1c0-3,0-5.9-0.1-8.9
	c-0.1-1.6,0.5-2.1,2.3-2.1c7.9,0.1,15.7,0.1,23.6,0c1.6,0,2.4,0.3,2.4,2c0,14.2,0,28.4,0.1,42.7
	C411.4,308.2,411.5,308.7,410.7,308.9z"/>
<path class="st43" d="M339.9,190.1c6.3,3.3,12,6.3,17.8,9.4c3.8,2,7.6,3.9,11.3,6c2.9,1.5,3.7,3.9,2.3,6.1c-1.3,2-4,2.5-6.7,1.1
	c-7.4-3.8-14.7-7.8-22.1-11.6c-1.9-1-2.8-2.1-2.6-4.1C340.1,194.9,339.9,192.7,339.9,190.1z"/>
<path class="st43" d="M270.9,190.3c1.5,6.5,0,10.8-7,13.5c-6.1,2.4-11.7,5.9-17.5,9c-2.6,1.4-4.7,0.9-6.4-1.3c-1.5-2-1-4.3,1.7-5.8
	C251.3,200.6,261,195.6,270.9,190.3z"/>
<path class="st8" d="M204.1,262.2c-11.5-6.8-17.5-16.5-19.1-28.8c-0.3-2.2,0-3,2.8-3c8.3,0.1,8.1,0,9.1,7.5
	c0.9,7.4,2.9,14.6,6.3,21.5C203.6,260.2,204.6,261,204.1,262.2z"/>
<path class="st42" d="M359.4,308.9c0-10.8,0-21.7,0.1-32.5c0-1.8-0.6-2.6-2.7-2.5c-2.8,0.1-5.6,0-8.4,0c-1.1,0-2.3-0.1-2.5,1.3
	c-1.1-2.4-2.6-4.5-5.7-5c-1.3-0.2-1.4-1.1-1.6-2c-0.5-1.7-1-3.3-1.6-5.2c7.2,0,14.2,0.1,21.1-0.1c2,0,1.9,1.1,2,2.1
	c0.1,3.4,0.1,6.8,0.1,10.1c0,10.4,0,20.9,0,31.3C360.1,307.4,360.8,308.4,359.4,308.9z"/>
<path class="st44" d="M236.4,262.1c5.5-9.8,7.7-19.6,8.4-29.7c0.1-1.7,0.9-1.9,2.5-2c5.1-0.1,5.1-0.2,5.1,4.4c0,0.7-0.1,1.4,0,2.1
	c0.4,4.4,0.1,8.3-4.3,11.3c-2.6,1.8-3.8,4.8-4.6,7.7C242.7,259.3,239.9,260.4,236.4,262.1z"/>
<path class="st22" d="M247.1,281.7c-2.2,0.8-3.8,2-5.7,4.2c0-2-0.2-3.3,0-4.6c0.4-2.6-0.8-3.3-3.6-3.1c-4.6,0.2-9.2,0.1-13.8,0
	c-1.1,0-2.8,0.4-2.5-1.4c0.2-1.3-1.1-3.2,1.5-3.8c4.3-0.9,7.3-3.4,9.9-6.4c1-1.2,2.2-1.9,4.1-2.4c-1,2.3-1.4,4.4-0.2,6.6
	c1.2,2.1,3.1,3.2,5.5,3.6c0.9,0.1,1.3,0.5,1.6,1.3C245,277.7,246,279.6,247.1,281.7z"/>
<path class="st45" d="M332.5,292.5c4.2,0,7.8,3.2,7.7,7c-0.1,3.7-3.5,6.9-7.5,6.9c-4,0.1-7.6-3-7.7-6.7
	C324.9,295.7,328.3,292.5,332.5,292.5z"/>
<path class="st45" d="M250.1,283.2c4.1,0,7.4,3,7.5,6.8c0,3.9-3.3,7-7.6,7c-4.2,0-7.4-3-7.5-6.8
	C242.4,286.2,245.8,283.2,250.1,283.2z"/>
<path class="st23" d="M340.6,240.9c6.1-8.2,12.7-9.6,21.1-5.1c1.5,0.8,1.8,1.5,1.4,3.1c-0.4,1.7-1.3,2-2.9,2
	C353.8,240.8,347.4,240.9,340.6,240.9z"/>
<path class="st23" d="M402.5,240.8c-7.1,0-13.6-0.1-20.2,0c-1.9,0-2.1-1-2.5-2.2c-0.5-1.4,0-2.1,1.4-2.9
	C389.6,231.2,395.9,232.6,402.5,240.8z"/>
<path class="st40" d="M285,296.7c-4.5,0.1-4.8-0.4-3.3-3.3c1.2-2.5,1.9-5.2,4.5-7c1.4-1,2.6-1.7,3.3,0.7c0.5,1.4,1.4,2.9,2.6,3.8
	c2.4,2,1.1,3-0.9,4C289.1,296.1,286.7,296.5,285,296.7z"/>
<path class="st46" d="M278.7,266.6c3.1-0.3,6.2,0.2,9.1,1.3c0,1.2-0.2,2.1-1.8,2.4c-3.7,0.9-5.3,3.3-5.6,6.7
	c-0.8-0.4-1.4-1.3-2.5-1.2c-1-1.8-2.7-2.3-4.9-2.2c-3.2,0.1-6.5,0.1-9.7,0c-1.2,0-2.5,0.1-3.5-0.6c-0.4-1.2,0.4-1.1,1.3-0.9
	c4.4,0,8.8,0,13.1,0.1c1.4,0,2.5-0.2,2.4-1.8C277.2,269.1,277.4,267.6,278.7,266.6z"/>
<path class="st24" d="M371.4,240.8c-1.5,0-2.9-0.1-4.4,0c-2.6,0.2-2.5-1-1.7-2.6c1.3-2.6,3.5-3.8,6.7-3.6c3,0.2,4.8,1.7,5.9,4.2
	c0.6,1.5,0.3,2.1-1.5,2C374.7,240.7,373.1,240.8,371.4,240.8z"/>
<path class="st47" d="M338,285.3c1.5,0.5,2.5,0.9,3.3,1.7c2.2,2.3,2.8,5.3,4.3,7.9c0.4,0.7-0.1,1.1-0.7,1.4
	c-1.1,0.5-2.3,0.8-3.1-0.2c-1.6-2-3.3-3.8-5.8-5c-0.3-0.1-0.7-0.8-0.6-1C336.1,288.5,337.1,286.9,338,285.3z"/>
<path class="st48" d="M297.1,298.7c0.3,7.8,0.3,7.9-7.3,7.8c-1.6,0-4.1,0.9-4.5-0.7c-0.5-1.9,2.2-2.1,3.7-2.9
	C291.5,301.5,294.2,300.2,297.1,298.7z"/>
<path class="st49" d="M287,277.5c0,0.1,0.1,0.6,0,1.1c-0.1,0.9,1,2.2-0.4,2.7c-1.2,0.4-2.2-0.7-3-1.5c-1.3-1.4-1.5-3-0.9-4.6
	c0.6-1.5,1.8-3.1,3.5-2.9c2.2,0.3,0.3,2.2,0.8,3.3C287.2,275.9,287,276.5,287,277.5z"/>
<path class="st50" d="M339.5,276.9c0-0.8-0.1-1.6-0.1-2.4c0-0.8-0.6-1.8,0.4-2.2c1-0.5,1.9,0.3,2.6,0.9c2.5,2,2.2,5.7-0.6,7.4
	c-0.6,0.4-1.3,1-2.1,0.6c-0.9-0.4-0.3-1.3-0.3-1.9C339.3,278.5,339.4,277.7,339.5,276.9z"/>
<path class="st51" d="M262.6,291.2c4.3,0.8,8.3,0.8,12.6,0c-1.3,2.9-3.5,4.2-6.3,4.1C266.1,295.4,263.8,294.2,262.6,291.2z"/>
<path class="st52" d="M243,263c-0.5,3.5-0.3,6.5-0.1,9.6c-3.2-0.6-4.8-2.3-4.8-4.9C238.2,265.3,239.8,263.7,243,263z"/>
<path class="st53" d="M312,300.6c-3,3.4-6.7,2.9-8.8-1.3C306.3,299.5,309,300.7,312,300.6z"/>
<path class="st54" d="M314,300.6c3.4-0.1,6-0.8,9.1-1.6c-0.2,2-1.4,2.8-2.9,3.4C317.9,303.3,316.1,302.7,314,300.6z"/>
<path class="st55" d="M294.1,253.1c2.3,0,4,0,6.4,0c-2.1,1.2-3.7,2.1-5.5,3.1C294.7,255.1,294.4,254.2,294.1,253.1z"/>
<path class="st23" d="M374.3,173.7c0.5,0.1,1.2,0,1.6,0.2c1.9,1.3,3.7,1,5.8,0.1c2.2-1,4.5-0.1,5.9,1.7c1.5,1.9,1.6,4.2-0.1,6
	c-2.4,2.5-5.2,4.8-7.8,7.2c-0.7,0.6-1.2,0.7-1.9,0c-2.6-2.4-5.3-4.7-7.8-7.2c-1.5-1.5-1.5-3.3-0.6-5.2
	C370.3,174.7,372,173.9,374.3,173.7z"/>
<path class="st23" d="M390,149c0.2,1.6-1,2.7-2.3,3.8c-2.2,1.8-4.2,5.6-6.5,5.2c-3.1-0.5-5.2-3.9-7.5-6.3c-1.9-2-1.6-4.2,0.4-6
	c0.9-0.8,2.6-1.7,3.3-1.1c3.5,2.8,7.8-1.9,11.2,1.1C389.5,146.5,390,147.6,390,149z"/>
<path class="st56" d="M402.7,163.4c-0.1,1.1-4.2,5.6-5,5.7c-1.3,0.1-5.9-5.1-5.5-6.3c0.4-1,1.8-2.2,2.3-1.8c2.5,1.9,6-1.9,8,1.4
	C402.7,162.8,402.6,163.2,402.7,163.4z"/>
<path class="st57" d="M295.3,189.9c0.1-5.3,4.8-9.5,10.6-9.4c5.6,0.1,10.2,4.4,10.3,9.5c0,5.2-4.8,9.6-10.5,9.6
	C299.8,199.6,295.2,195.3,295.3,189.9z"/>
<path class="st58" d="M306.1,279.1c-0.2,0.6-0.4,1.2-0.7,1.8c-0.3,1.2-0.4,2.5-1.3,3.6c-4,2.7-9.6,1.3-10.2-3.1
	c-0.5-4,2.7-6.7,7-5.9c0.8,0.1,1.5,0.3,2.3,0.4C304.4,276.8,305.1,278,306.1,279.1z"/>
<path class="st59" d="M321,280.8c-0.2-0.6-0.4-1.2-0.7-1.8c1-1,1.8-2.2,2.8-3.2c2.5-0.4,5-1.3,7.2,0.6c2.2,1.9,2.8,4.8,1.3,6.9
	c-1.5,2.1-4.6,2.9-7.4,2c-0.7-0.2-1.4-0.6-2.1-0.9C321.4,283.3,321.3,282,321,280.8z"/>
<path class="st60" d="M321,280.8c2.1,0.7,1.2,2.3,1.2,3.6c-1.7,3.5-4.4,5.8-8.8,5.9c-4.6,0.1-7.4-2.3-9.2-5.9
	c0.1-1.3-0.9-2.9,1.3-3.6C310.6,281.1,315.8,281.1,321,280.8z"/>
<path class="st61" d="M323.2,275.8c0,1.8-0.5,3.2-2.8,3.2c-2.2-1.1-2.8-2.7-1-4.3C321,273.2,322.3,274.4,323.2,275.8z"/>
<path class="st61" d="M306.1,279.1c-2.4,0-2.9-1.4-2.8-3.2c0.9-1.5,2.3-2.6,3.9-1C308.9,276.4,308.2,278,306.1,279.1z"/>
<path class="st58" d="M261,272c-0.6,0.1-1.2,0.2-1.3,0.9c0.7,0.9,1.3,1.8,0.4,2.9c-1.6,0.4-3.2,1.1-4.8,1.2
	c-3.2,0.1-6.1-2.9-5.8-5.6c0.4-3.2,2.8-5.1,6.4-4.8c1,0.1,1.9,0.4,2.9,0.6c1,0.9,1.7,1.9,2.1,3.1C261,270.9,261,271.5,261,272z"/>
<path class="st62" d="M260,275.8c-0.1-1-0.2-1.9-0.4-2.9c5.6-0.8,11.1-0.3,16.7-0.3c2.8,0,1.2,2.1,1.5,3.2c-1.7,3.7-4.6,6-9.1,5.9
	C264.4,281.7,261.5,279.5,260,275.8z"/>
<path class="st63" d="M260.9,270.3c-1.3-0.7-2.1-1.7-2.1-3.1c0.7-1.2,1.5-2.3,3.3-1.8c1,0.3,1.5,1.1,1.6,2.1
	C263.7,269.3,262.7,270.1,260.9,270.3z"/>
<path class="st64" d="M278.7,266.6c0.3,1.7-0.1,3.1-2.2,3.7c-2.3-0.7-3-2.3-1.8-4.1C275.9,264.5,277.5,265.1,278.7,266.6z"/>
<path class="st27" d="M305.7,197.7c-4.8,0-8.5-3.4-8.5-7.8c0-4.2,3.6-7.6,8.3-7.6c4.7-0.1,8.7,3.4,8.7,7.6
	C314.3,194.2,310.4,197.7,305.7,197.7z"/>
<path class="st65" d="M313.3,282.7c1.7,0,3.4,0,5,0c1.6-0.1,2.3,0.3,1.5,1.9c-1.3,2.6-3.7,3.9-6.6,4c-3,0.1-5.3-1.3-6.7-3.9
	c-0.7-1.4-0.5-2.1,1.3-2C309.8,282.7,311.6,282.7,313.3,282.7z"/>
<path class="st66" d="M268.8,274.1c1.6,0,3.1,0.1,4.7,0c2.6-0.1,3,0.8,1.7,2.7c-1.5,2.1-3.7,3.4-6.4,3.3c-2.8-0.1-5.1-1.4-6.4-3.8
	c-0.8-1.4-0.8-2.3,1.4-2.2C265.4,274.2,267.1,274.1,268.8,274.1C268.8,274.1,268.8,274.1,268.8,274.1z"/>
</svg>
