<?xml version="1.0" encoding="utf-8"?>
<!-- Generator: Adobe Illustrator 24.1.2, SVG Export Plug-In . SVG Version: 6.00 Build 0)  -->
<svg version="1.1" id="레이어_1" xmlns="http://www.w3.org/2000/svg" xmlns:xlink="http://www.w3.org/1999/xlink" x="0px"
	 y="0px" viewBox="0 0 504 145.5" style="enable-background:new 0 0 504 145.5;" xml:space="preserve">
<path d="M56.3,28.8c4.7,0,8.8,0.6,12.2,1.9c3.5,1.3,6.3,2.9,8.6,4.8c2.2,2.1,3.9,4.3,5,6.7c1.1,2.4,1.6,4.9,1.6,7.3v8.8
	c0,3.9-0.9,7.3-2.6,10.2c-1.8,2.9-3.9,5.3-6.3,7.3c2.8,1.8,5.3,4,7.4,6.7c2.1,2.7,3.1,5.7,3.1,8.8v12.5c-0.2,6.3-2.5,11.4-7,15.5
	c-4.4,4.1-10.5,6.3-18.1,6.7H16.1c-1.8,0-3.2-0.5-4.4-1.5s-1.8-2.3-1.8-3.9V34.1c0-1.5,0.6-2.7,1.7-3.7c1.1-1,2.6-1.5,4.3-1.5H56.3z
	 M71.3,49.6c0-0.9-0.2-1.9-0.6-3c-0.4-1.1-1.1-2.2-2.2-3.3c-1.2-1-2.7-1.8-4.7-2.6c-2-0.7-4.5-1.1-7.6-1.1h-34v30.2h41
	c2.3-0.8,4.3-2.2,5.8-4.2c1.5-2,2.3-4.4,2.3-7.3V49.6z M72.9,91.3c0-1.6-0.3-3-1-4.3c-0.6-1.3-1.5-2.5-2.6-3.4
	c-1.1-1-2.3-1.7-3.7-2.2c-1.4-0.5-2.8-0.7-4.2-0.7H22.3v34.6h37.8c1.1,0,2.3-0.2,3.8-0.7s2.9-1.1,4.2-2.1c1.4-0.9,2.5-2,3.4-3.4
	c0.9-1.4,1.4-3.1,1.4-5.2V91.3z"/>
<path d="M177,119.9c0.3,0.3,0.4,0.6,0.3,1c-0.1,0.4-0.3,0.7-0.7,0.9l-8.1,5c-0.5,0.3-1,0.2-1.5-0.3l-39.3-46.6
	c-0.6-0.6-0.9-1.5-0.9-2.8c0-1.4,0.6-2.5,1.7-3.5c1.1-1,2.7-1.5,4.6-1.6H154c2.6,0,4.7-0.5,6.2-1.4c1.5-0.9,2.7-2,3.4-3.3
	c0.7-1.2,1.1-2.3,1.2-3.5c0.1-1.2,0.2-2,0.2-2.5V49.6c0-3-1.2-5.4-3.5-7.3c-2.3-1.8-5-2.7-7.9-2.7h-27.1c-2.8,0-5,0.6-6.5,1.8
	c-1.5,1.2-2.7,2.5-3.4,3.9c-0.9,1.8-1.4,3.7-1.5,5.7v73.8c0,0.8-0.4,1.2-1.2,1.2h-10c-0.8,0-1.2-0.4-1.2-1.2V51
	c0-2.1,0.4-4.5,1.2-7.1c0.8-2.6,2.2-5,4.2-7.3c1.9-2.2,4.3-4.1,7.3-5.6c3-1.5,6.7-2.3,11.1-2.3h27.1c3.3,0,6.4,0.5,9.4,1.6
	c2.9,1.1,5.5,2.5,7.6,4.4c2.1,2,3.7,4.2,4.9,6.7c1.2,2.5,1.8,5.2,1.8,8.1v11.7c0,2.6-0.5,5.3-1.4,7.8c-0.9,2.6-2.3,4.9-4.2,7
	c-2,2.1-4.4,3.7-7.4,5c-3,1.3-6.5,1.9-10.5,1.9h-8.6L177,119.9z"/>
<path d="M204.5,126l-10-1.5c-0.2-0.1-0.4-0.3-0.7-0.7c-0.2-0.3-0.4-0.7-0.4-1c1.7-10.4,3.4-21,5.1-31.9c1.8-10.9,3.5-21.5,5.1-31.9
	c0.1-0.7,0.3-1.9,0.7-3.7c0.3-1.8,0.9-3.8,1.7-6c0.7-2.2,1.6-4.6,2.8-7.1s2.6-4.8,4.4-6.8c1.8-2,3.9-3.6,6.4-4.9
	c2.5-1.3,5.3-2,8.6-2h14.6c3.3,0,6.2,0.7,8.6,2c2.4,1.3,4.6,3,6.4,5.1c1.8,2.1,3.2,4.3,4.4,6.8s2.1,4.9,2.9,7.1
	c0.7,2.2,1.2,4.2,1.5,6s0.5,2.9,0.6,3.5c1.7,10.4,3.4,21,5.1,31.9c1.8,10.9,3.5,21.5,5.1,31.9c0,0.9-0.3,1.4-1,1.6l-10,1.5
	c-0.7,0.2-1.1-0.2-1.3-1.2l-5.4-33.3h-48.8l-5.3,33.3C205.6,125.9,205.2,126.2,204.5,126z M255,61.2c-0.2-1.8-0.6-3.9-1.2-6.4
	c-0.6-2.5-1.4-4.9-2.4-7.1c-1-2.2-2.2-4.1-3.6-5.7c-1.4-1.6-3.1-2.3-4.9-2.3h-14.6c-1.9,0-3.5,0.8-4.9,2.3c-1.4,1.6-2.6,3.5-3.6,5.7
	c-1,2.2-1.8,4.6-2.4,7.1c-0.6,2.5-1.1,4.6-1.2,6.4l-3.2,19.6h45.3L255,61.2z"/>
<path d="M297.7,126c-1.6,0-3-0.6-4.2-1.8c-1.2-1.2-1.9-2.7-2-4.3v-7.3c0-3.5,0.6-6.6,1.9-9.2c1.3-2.6,3.5-5.6,6.6-9.2v0.1l38.8-41
	c2.4-2.2,4-4.6,4.5-7.1s0.9-4.7,0.9-6.7h-48.6c-0.8,0-1.2-0.4-1.2-1.2V30c0-0.8,0.4-1.2,1.2-1.2h54.8c1.6,0,3,0.5,4.2,1.5
	c1.3,1,1.9,2.3,1.9,3.9v9.5c0,3.4-0.9,6.4-2.6,9c-1.8,2.6-4.2,5.7-7.3,9.3v-0.1L307,103.1c-1.7,1.9-2.6,3.5-2.9,4.8
	c-0.2,1.4-0.4,3.1-0.4,5.1v2.2h53c0.8,0,1.2,0.4,1.2,1.2v8.5c0,0.8-0.4,1.2-1.2,1.2H297.7z"/>
<path d="M374.4,126c-0.8,0-1.2-0.4-1.2-1.2v-8.5c0-0.8,0.4-1.2,1.2-1.2H385V39.5h-10.5c-0.8,0-1.2-0.4-1.2-1.2V30
	c0-0.8,0.4-1.2,1.2-1.2h33.4c0.8,0,1.2,0.4,1.2,1.2v8.3c0,0.8-0.4,1.2-1.2,1.2h-10.5v75.7h10.5c0.8,0,1.2,0.4,1.2,1.2v8.5
	c0,0.8-0.4,1.2-1.2,1.2H374.4z"/>
<path d="M433.6,126c-1.8,0-3.2-0.5-4.4-1.5s-1.8-2.3-1.8-3.9V30c0-0.8,0.4-1.2,1.2-1.2h10c0.8,0,1.2,0.4,1.2,1.2v85.3h51.6
	c0.8,0,1.2,0.4,1.2,1.2v8.5c0,0.8-0.4,1.2-1.2,1.2H433.6z"/>
</svg>
