<?xml version="1.0" encoding="utf-8"?>
<!-- Generator: Adobe Illustrator 24.1.2, SVG Export Plug-In . SVG Version: 6.00 Build 0)  -->
<svg version="1.1" id="레이어_1" xmlns="http://www.w3.org/2000/svg" xmlns:xlink="http://www.w3.org/1999/xlink" x="0px"
	 y="0px" viewBox="0 0 491.7 139" style="enable-background:new 0 0 491.7 139;" xml:space="preserve">
<style type="text/css">
	.st0{fill:none;}
</style>
<rect x="13.2" y="-9.7" class="st0" width="470.5" height="148.7"/>
<path d="M91.2,116.6c-0.2,0.2-0.5,0.3-0.9,0.3c-0.4,0-0.7-0.1-0.9-0.3L47.3,70.9H35.4v44.2c0,0.8-0.4,1.2-1.2,1.2h-10
	c-0.8,0-1.2-0.4-1.2-1.2V20.3c0-0.8,0.4-1.2,1.2-1.2h10c0.8,0,1.2,0.4,1.2,1.2v39.8h13.3l34.9-41.3c0.4-0.2,0.9-0.2,1.6,0l7.6,5.7
	c0.7,0.6,0.7,1.2,0,1.9L58.9,66L98.7,109c0.6,0.7,0.6,1.3,0.1,1.8L91.2,116.6z"/>
<path d="M164,19.1c7.9,0,14.1,2,18.5,6.1c4.4,4.1,6.7,9.9,6.7,17.7v49.8c0,4.4-0.6,8.1-1.9,11.1c-1.3,3-3,5.4-5.3,7.4
	c-2.3,1.9-5.1,3.2-8.1,4c-3.1,0.8-6.4,1.2-9.9,1.2h-24.9c-3.5,0-6.8-0.4-9.9-1.2c-3.1-0.8-5.7-2.2-8-4c-2.3-2-4.2-4.4-5.4-7.4
	c-1.3-3-1.9-6.7-1.9-11.1V42.8c0-7.7,2.2-13.6,6.7-17.7c4.4-4.1,10.6-6.1,18.5-6.1H164z M176.9,42.8c0-4.4-1.3-7.6-3.9-9.7
	c-2.6-2.1-5.6-3.1-9-3.1h-24.9c-3.7,0-6.8,1.1-9.2,3.1c-2.4,2.1-3.7,5.3-3.7,9.7v49.8c0,2.2,0.4,4.2,1.1,5.8s1.7,3,3,4
	c1.2,1.1,2.5,1.9,4,2.3c1.5,0.5,3.1,0.7,4.8,0.7H164c3.6,0,6.7-1,9.2-3.1s3.7-5.3,3.7-9.8V42.8z"/>
<path d="M283.3,110.2c0.3,0.3,0.4,0.6,0.3,1c-0.1,0.4-0.3,0.7-0.7,0.9l-8.1,5c-0.5,0.3-1,0.2-1.5-0.3l-39.3-46.6
	c-0.6-0.6-0.9-1.5-0.9-2.8c0-1.4,0.6-2.5,1.7-3.5c1.1-1,2.7-1.5,4.6-1.6h20.8c2.6,0,4.7-0.5,6.2-1.4c1.5-0.9,2.7-2,3.4-3.3
	c0.7-1.2,1.1-2.3,1.2-3.5s0.2-2,0.2-2.5V39.9c0-3-1.2-5.4-3.5-7.3c-2.3-1.8-5-2.7-7.9-2.7h-27.1c-2.8,0-5,0.6-6.5,1.8
	c-1.5,1.2-2.7,2.5-3.4,3.9c-0.9,1.8-1.4,3.7-1.5,5.7v73.8c0,0.8-0.4,1.2-1.2,1.2h-10c-0.8,0-1.2-0.4-1.2-1.2V41.3
	c0-2.1,0.4-4.5,1.2-7.1c0.8-2.6,2.2-5,4.2-7.3c1.9-2.2,4.3-4.1,7.3-5.6c3-1.5,6.7-2.3,11.1-2.3H260c3.3,0,6.4,0.5,9.4,1.6
	c2.9,1.1,5.5,2.5,7.6,4.4c2.1,2,3.7,4.2,4.9,6.7c1.2,2.5,1.8,5.2,1.8,8.1v11.7c0,2.6-0.5,5.3-1.4,7.8c-0.9,2.6-2.3,4.9-4.2,7
	c-2,2.1-4.4,3.7-7.4,5c-3,1.3-6.5,1.9-10.5,1.9h-8.6L283.3,110.2z"/>
<path d="M370.7,115.2c0,0.8-0.4,1.2-1.2,1.2H328c-3.6,0-7-0.4-10-1.2c-3.1-0.8-5.7-2.2-8-4c-2.2-2-4-4.4-5.3-7.4
	c-1.3-3-1.9-6.7-1.9-11.1V42.8c0-7.7,2.2-13.6,6.7-17.7c4.4-4.1,10.6-6.1,18.5-6.1h40.1c0.8,0,1.2,0.4,1.2,1.2v8.5
	c0,0.8-0.4,1.2-1.2,1.2H328c-1.6,0-3.1,0.3-4.6,0.8c-1.5,0.5-2.9,1.3-4,2.3c-1.3,1.1-2.3,2.4-3.1,4.1c-0.8,1.7-1.2,3.6-1.2,5.7v17.3
	h50.1c0.8,0,1.2,0.4,1.2,1.2v8.5c0,0.8-0.4,1.2-1.2,1.2h-50.1v21.7c0,2.2,0.4,4.2,1.2,5.8c0.8,1.6,1.8,3,3.1,4
	c1.2,1.1,2.5,1.9,4,2.3c1.5,0.5,3.1,0.7,4.6,0.7h41.6c0.8,0,1.2,0.4,1.2,1.2V115.2z"/>
<path d="M395.8,116.3l-10-1.5c-0.2-0.1-0.4-0.3-0.7-0.7c-0.2-0.3-0.4-0.7-0.4-1c1.7-10.3,3.4-21,5.1-31.9
	c1.8-10.9,3.5-21.5,5.1-31.9c0.1-0.7,0.3-1.9,0.7-3.7c0.3-1.8,0.9-3.8,1.7-6c0.7-2.2,1.6-4.6,2.8-7.1s2.6-4.8,4.4-6.8
	c1.8-2,3.9-3.6,6.4-4.9s5.3-2,8.6-2h14.6c3.3,0,6.2,0.7,8.6,2c2.4,1.3,4.6,3,6.4,5.1c1.8,2.1,3.2,4.3,4.4,6.8s2.1,4.9,2.9,7.1
	c0.7,2.2,1.2,4.2,1.5,6s0.5,2.9,0.6,3.5c1.7,10.4,3.4,21,5.1,31.9c1.8,10.9,3.5,21.5,5.1,31.9c0,0.9-0.3,1.4-1,1.6l-10,1.5
	c-0.7,0.2-1.1-0.2-1.3-1.2l-5.4-33.3h-48.8l-5.3,33.3C396.9,116.2,396.5,116.5,395.8,116.3z M446.3,51.5c-0.2-1.8-0.6-3.9-1.2-6.4
	c-0.6-2.5-1.4-4.9-2.4-7.1c-1-2.2-2.2-4.1-3.6-5.7c-1.4-1.6-3.1-2.3-4.9-2.3h-14.6c-1.9,0-3.5,0.8-4.9,2.3c-1.4,1.6-2.6,3.5-3.6,5.7
	c-1,2.2-1.8,4.6-2.4,7.1c-0.6,2.5-1.1,4.6-1.2,6.4l-3.2,19.6h45.3L446.3,51.5z"/>
</svg>
