<?xml version="1.0" encoding="utf-8"?>
<!-- Generator: Adobe Illustrator 24.1.2, SVG Export Plug-In . SVG Version: 6.00 Build 0)  -->
<svg version="1.1" id="레이어_1" xmlns="http://www.w3.org/2000/svg" xmlns:xlink="http://www.w3.org/1999/xlink" x="0px"
	 y="0px" viewBox="0 0 539.2 275.7" style="enable-background:new 0 0 539.2 275.7;" xml:space="preserve">
<style type="text/css">
	.st0{fill:none;}
</style>
<rect x="13.2" y="-20.4" class="st0" width="470.5" height="148.7"/>
<path d="M57.9,115.2c4.1,0,7.4-1.2,9.9-3.6c2.5-2.4,3.7-6,3.7-10.8V30c0-0.8,0.4-1.2,1.2-1.2h10c0.8,0,1.2,0.4,1.2,1.2v70.9
	c0,8.5-2.4,14.8-7.2,19c-4.8,4.1-11,6.2-18.8,6.2h-22c-7.7,0-14-2.1-18.8-6.2c-4.8-4.1-7.2-10.5-7.2-19V30c0-0.8,0.4-1.2,1.2-1.2h10
	c0.8,0,1.2,0.4,1.2,1.2v70.9c0,4.8,1.2,8.4,3.7,10.8c2.5,2.4,5.8,3.6,9.9,3.6H57.9z"/>
<path d="M124.1,44.5l-0.1-0.4c-0.4-0.9-0.7-1.6-1-2.2s-0.7-1-1.2-1.3c-0.6-0.3-1.3-0.5-2.2-0.7s-2.1-0.2-3.5-0.2v85.3
	c0,0.8-0.4,1.2-1.2,1.2h-10c-0.8,0-1.2-0.4-1.2-1.2V34.9c0-1.6,0.6-3,1.8-4.2c1.2-1.2,2.7-1.9,4.3-2h8.8c4.2,0,7.4,0.6,9.7,1.7
	c2.2,1.1,4.1,3.1,5.4,6.1l29.3,73.5c0.9,2,1.9,3.3,3,4c1.1,0.7,2.8,1.1,5.1,1.1V30c0-0.8,0.4-1.2,1.2-1.2h10c0.8,0,1.2,0.4,1.2,1.2
	v90.7c0,1.6-0.5,2.9-1.5,3.9s-2.3,1.5-3.9,1.5h-8.1c-4.3,0-7.8-0.6-10.5-1.8c-2.7-1.2-4.7-3.3-6-6.2L124.1,44.5z"/>
<path d="M203,126c-0.8,0-1.2-0.4-1.2-1.2v-8.5c0-0.8,0.4-1.2,1.2-1.2h10.5V39.5H203c-0.8,0-1.2-0.4-1.2-1.2V30
	c0-0.8,0.4-1.2,1.2-1.2h33.4c0.8,0,1.2,0.4,1.2,1.2v8.3c0,0.8-0.4,1.2-1.2,1.2h-10.5v75.7h10.5c0.8,0,1.2,0.4,1.2,1.2v8.5
	c0,0.8-0.4,1.2-1.2,1.2H203z"/>
<path d="M327,38.5c0,0.8-0.4,1.2-1.2,1.2h-29.6v85.3c0,0.8-0.4,1.2-1.2,1.2h-10c-0.8,0-1.2-0.4-1.2-1.2V39.6h-29.6
	c-0.8,0-1.2-0.4-1.2-1.2V30c0-0.8,0.4-1.2,1.2-1.2h71.5c0.8,0,1.2,0.4,1.2,1.2V38.5z"/>
<path d="M411.9,124.9c0,0.8-0.4,1.2-1.2,1.2h-41.6c-3.6,0-7-0.4-10-1.2c-3.1-0.8-5.7-2.2-8-4c-2.2-2-4-4.4-5.3-7.4
	c-1.3-3-1.9-6.7-1.9-11.1V52.5c0-7.7,2.2-13.6,6.7-17.7c4.4-4.1,10.6-6.1,18.5-6.1h40.1c0.8,0,1.2,0.4,1.2,1.2v8.5
	c0,0.8-0.4,1.2-1.2,1.2h-40.1c-1.6,0-3.1,0.3-4.6,0.8c-1.5,0.5-2.9,1.3-4,2.3c-1.3,1.1-2.3,2.4-3.1,4.1c-0.8,1.7-1.2,3.6-1.2,5.7
	v17.3h50.1c0.8,0,1.2,0.4,1.2,1.2v8.5c0,0.8-0.4,1.2-1.2,1.2h-50.1v21.7c0,2.2,0.4,4.2,1.2,5.8c0.8,1.6,1.8,3,3.1,4
	c1.2,1.1,2.5,1.9,4,2.3c1.5,0.5,3.1,0.7,4.6,0.7h41.6c0.8,0,1.2,0.4,1.2,1.2V124.9z"/>
<path d="M477.5,28.8c5.1,0,9.3,0.8,12.7,2.5c3.4,1.7,6.2,3.7,8.2,6s3.5,4.8,4.4,7.3c0.9,2.5,1.3,4.7,1.3,6.4v52.7
	c0,3.7-0.7,6.9-2.1,9.7c-1.4,2.7-3.1,5.1-5.3,7c-2.2,1.9-4.8,3.2-7.7,4.2c-2.9,0.9-5.8,1.4-8.7,1.4h-45.4c-1.7,0-3.1-0.5-4.3-1.5
	c-1.2-1-1.8-2.3-1.8-3.9V34.2c0-1.5,0.6-2.7,1.8-3.7c1.2-1,2.7-1.6,4.3-1.7H477.5z M491.9,51c-0.2-2.1-0.8-4-1.9-5.7
	c-1-1.4-2.4-2.7-4.4-3.9c-2-1.2-4.6-1.8-8.1-1.8h-36.3v75.6h39.3c1.1,0,2.3-0.2,3.6-0.5c1.3-0.3,2.6-1,3.7-1.8s2.1-2.1,2.9-3.5
	c0.8-1.5,1.2-3.3,1.2-5.6V51z"/>
<path d="M28.2,172.1c-0.7,0-1.5,0.1-2.4,0.3c-0.9,0.2-1.7,0.6-2.5,1.2s-1.4,1.4-2,2.4c-0.5,1-0.8,2.3-0.8,3.8v4.9
	c0.3,1.6,0.7,2.9,1.4,3.8c0.6,0.9,1.5,1.8,2.8,2.5s3.1,1.2,5.4,1.2c2.3,0,4.6,0,6.8,0.1c2.3,0.1,4.6,0.1,6.8,0.1
	c3.3,0.1,6.1,0.6,8.3,1.7c2.2,1,4.1,2.3,5.5,3.7c1.4,1.5,2.4,3.1,3,4.8c0.6,1.7,0.9,3.2,0.9,4.6v7.8c0,2.5-0.4,4.6-1.3,6.4
	c-0.8,1.8-2,3.4-3.4,4.7c-1.5,1.2-3.2,2.2-5.1,2.8c-1.9,0.6-3.9,0.9-6,0.9H14.1c-0.5,0-0.8-0.3-0.8-0.8v-5.6c0-0.5,0.3-0.8,0.8-0.8
	h31.6c0.7,0,1.5-0.1,2.4-0.3c0.9-0.2,1.7-0.6,2.5-1.2s1.4-1.4,2-2.4c0.5-1,0.8-2.3,0.8-3.8v-7.8c-0.3-1.6-0.7-2.9-1.3-3.8
	c-0.7-0.9-1.6-1.8-2.9-2.5s-3.1-1.2-5.4-1.2l-13.7-0.2c-3.4,0-6.2-0.5-8.5-1.6c-2.3-1.1-4.1-2.4-5.5-4s-2.3-3.2-2.9-4.9
	c-0.6-1.7-0.9-3.1-0.9-4.3v-4.9c0-2.4,0.5-4.5,1.4-6.4c0.9-1.9,2.1-3.4,3.6-4.7c1.4-1.2,3.1-2.2,5-2.8c1.9-0.6,3.9-0.9,5.8-0.9h30.7
	c0.5,0,0.8,0.3,0.8,0.8v5.6c0,0.5-0.3,0.8-0.8,0.8H28.2z"/>
<path d="M119.9,171.4c0,0.5-0.3,0.8-0.8,0.8H99.4V229c0,0.5-0.3,0.8-0.8,0.8h-6.6c-0.5,0-0.8-0.3-0.8-0.8v-56.8H71.4
	c-0.5,0-0.8-0.3-0.8-0.8v-5.7c0-0.5,0.3-0.8,0.8-0.8h47.7c0.5,0,0.8,0.3,0.8,0.8V171.4z"/>
<path d="M136.6,229.8l-6.6-1c-0.1-0.1-0.3-0.2-0.4-0.4c-0.2-0.2-0.2-0.4-0.2-0.6c1.1-6.9,2.2-14,3.4-21.2c1.2-7.3,2.3-14.3,3.4-21.2
	c0.1-0.5,0.2-1.3,0.4-2.4c0.2-1.2,0.6-2.5,1.1-4c0.5-1.5,1.1-3.1,1.9-4.7s1.8-3.2,2.9-4.5c1.2-1.3,2.6-2.4,4.2-3.3
	c1.7-0.9,3.6-1.3,5.7-1.3h9.8c2.2,0,4.1,0.4,5.8,1.3c1.6,0.9,3.1,2,4.3,3.4c1.2,1.4,2.1,2.9,2.9,4.5s1.4,3.2,2,4.7
	c0.5,1.5,0.8,2.8,1,4s0.3,2,0.4,2.3c1.1,6.9,2.2,14,3.4,21.2c1.2,7.3,2.3,14.3,3.4,21.2c0,0.6-0.2,0.9-0.7,1.1l-6.6,1
	c-0.5,0.1-0.7-0.1-0.9-0.8l-3.6-22.2H141l-3.5,22.2C137.3,229.7,137,229.9,136.6,229.8z M170.3,186.6c-0.1-1.2-0.4-2.6-0.8-4.2
	c-0.4-1.7-1-3.2-1.6-4.7c-0.7-1.5-1.4-2.8-2.4-3.8c-0.9-1-2-1.6-3.3-1.6h-9.8c-1.2,0-2.3,0.5-3.3,1.6c-0.9,1-1.7,2.3-2.4,3.8
	c-0.7,1.5-1.2,3.1-1.6,4.7c-0.4,1.7-0.7,3.1-0.8,4.2l-2.1,13.1h30.2L170.3,186.6z"/>
<path d="M243.8,171.4c0,0.5-0.3,0.8-0.8,0.8h-19.7V229c0,0.5-0.3,0.8-0.8,0.8h-6.6c-0.5,0-0.8-0.3-0.8-0.8v-56.8h-19.7
	c-0.5,0-0.8-0.3-0.8-0.8v-5.7c0-0.5,0.3-0.8,0.8-0.8H243c0.5,0,0.8,0.3,0.8,0.8V171.4z"/>
<path d="M300.4,229c0,0.5-0.3,0.8-0.8,0.8h-27.7c-2.4,0-4.6-0.3-6.7-0.8c-2.1-0.6-3.8-1.4-5.3-2.7c-1.5-1.3-2.7-2.9-3.5-4.9
	c-0.8-2-1.3-4.4-1.3-7.4v-33.2c0-5.1,1.5-9.1,4.4-11.8c3-2.7,7.1-4.1,12.4-4.1h26.8c0.5,0,0.8,0.3,0.8,0.8v5.7
	c0,0.5-0.3,0.8-0.8,0.8h-26.8c-1,0-2.1,0.2-3.1,0.5c-1,0.4-1.9,0.9-2.7,1.5c-0.8,0.7-1.5,1.6-2.1,2.7c-0.5,1.1-0.8,2.4-0.8,3.8v11.5
	h33.4c0.5,0,0.8,0.3,0.8,0.8v5.7c0,0.5-0.3,0.8-0.8,0.8h-33.4V214c0,1.5,0.3,2.8,0.8,3.9c0.5,1.1,1.2,2,2.1,2.7
	c0.8,0.7,1.7,1.2,2.7,1.6c1,0.3,2,0.5,3.1,0.5h27.7c0.5,0,0.8,0.3,0.8,0.8V229z"/>
<path d="M325.6,172.1c-0.7,0-1.5,0.1-2.4,0.3c-0.9,0.2-1.7,0.6-2.5,1.2s-1.4,1.4-2,2.4c-0.5,1-0.8,2.3-0.8,3.8v4.9
	c0.3,1.6,0.7,2.9,1.4,3.8c0.6,0.9,1.5,1.8,2.8,2.5s3.1,1.2,5.4,1.2c2.3,0,4.6,0,6.8,0.1c2.3,0.1,4.6,0.1,6.8,0.1
	c3.3,0.1,6.1,0.6,8.3,1.7c2.2,1,4.1,2.3,5.5,3.7c1.4,1.5,2.4,3.1,3,4.8c0.6,1.7,0.9,3.2,0.9,4.6v7.8c0,2.5-0.4,4.6-1.3,6.4
	c-0.8,1.8-2,3.4-3.4,4.7c-1.5,1.2-3.2,2.2-5.1,2.8c-1.9,0.6-3.9,0.9-6,0.9h-31.6c-0.5,0-0.8-0.3-0.8-0.8v-5.6c0-0.5,0.3-0.8,0.8-0.8
	h31.6c0.7,0,1.5-0.1,2.4-0.3c0.9-0.2,1.7-0.6,2.5-1.2s1.4-1.4,2-2.4c0.5-1,0.8-2.3,0.8-3.8v-7.8c-0.3-1.6-0.7-2.9-1.3-3.8
	c-0.7-0.9-1.6-1.8-2.9-2.5s-3.1-1.2-5.4-1.2l-13.7-0.2c-3.4,0-6.2-0.5-8.5-1.6c-2.3-1.1-4.1-2.4-5.5-4s-2.3-3.2-2.9-4.9
	c-0.6-1.7-0.9-3.1-0.9-4.3v-4.9c0-2.4,0.5-4.5,1.4-6.4c0.9-1.9,2.1-3.4,3.6-4.7c1.4-1.2,3.1-2.2,5-2.8c1.9-0.6,3.9-0.9,5.8-0.9h30.7
	c0.5,0,0.8,0.3,0.8,0.8v5.6c0,0.5-0.3,0.8-0.8,0.8H325.6z"/>
</svg>
